<svg width="256" height="256" viewBox="0 0 256 256"><path fill="#fff" d="M102.299 112.701H153.757C156.021 112.701 157.879 114.581 157.879 116.851V125.213C157.879 127.483 156.021 129.363 153.757 129.363H102.299C100.036 129.363 98.1768 127.483 98.1768 125.213V116.851C98.1768 114.581 100.036 112.701 102.299 112.701ZM125.967 16.1246H130.089C165.051 16.1246 185.024 39.7849 189.419 86.4503H66.6298C71.0243 39.7849 90.9356 16.1246 125.967 16.1246ZM125.967 0C94.56 0 56.2386 15.1495 50.0941 86.4425H13.585C-3.3474 86.4425 0.339272 102.731 0.339272 102.731L34.974 230.597C34.974 230.597 42.3396 255.045 79.9455 255.045H123.447H132.555H176.056C213.67 255.045 221.028 230.597 221.028 230.597L255.662 102.653C255.662 102.715 259.349 86.4503 242.355 86.4503H205.962C199.755 15.1573 161.496 0.00779966 130.089 0.00779966H125.967V0Z"/></svg>