<svg width="257" height="256" fill="none" viewBox="0 0 257 256"><path fill="#fff" d="M116.988 256V154.337C116.988 142.515 120.588 133.18 127.787 126.332C134.986 119.484 144.848 116.06 157.372 116.06H256.752V141.52H157.723C152.807 141.52 149.003 142.749 146.311 145.207C143.618 147.665 142.272 151.118 142.272 155.566V256H116.988ZM45.7017 256H211.979C226.962 256 238.17 252.313 245.603 244.938C253.036 237.564 256.752 226.502 256.752 211.753V44.2469C256.752 29.4981 253.036 18.4364 245.603 11.0618C238.17 3.68726 226.962 0 211.979 0H45.7017C30.8356 0 19.6568 3.68726 12.1652 11.0618C4.67372 18.4364 0.927979 29.4981 0.927979 44.2469V211.753C0.927979 226.502 4.67372 237.564 12.1652 244.938C19.6568 252.313 30.8356 256 45.7017 256Z"/></svg>