<svg width="256" height="236" viewBox="0 0 256 236"><path fill="#fff" fill-rule="evenodd" d="M0 235.316H31.2803L34.1767 224.889H212.011L218.383 235.316H245.609C206.219 135.104 227.072 73.1243 254.298 17.5138C263.088 -0.442245 235.771 -9.44704 219.542 14.6175C214.827 21.608 210.295 33.0636 205.19 45.9675C192.105 79.0419 175.256 121.631 141.92 122.939C125.711 123.574 112.777 119.852 102 114C93.135 109.186 85.6732 105 76 105C42.4026 105 10.4268 179.127 0 235.316ZM158.139 194.769H88.6276C74.146 194.769 74.146 166.964 123.963 166.964C173.78 166.964 172.621 194.769 158.139 194.769Z" clip-rule="evenodd"/></svg>