<svg width="256" height="256" fill="none" viewBox="0 0 256 256"><path fill="#fff" d="M128 100.15C112.34 100.15 105.26 114.22 105.26 123.38C105.26 140.7 127.99 155.86 127.99 155.86C127.99 155.86 150.72 140.7 150.72 123.38C150.72 114.22 143.66 100.15 128 100.15ZM139.78 114.61C137.99 115.91 136.87 116.28 135.48 116.55L135.5 128.02L139.78 128.04C139.75 130.04 139.46 131.3 139.14 131.85L131.3 131.8V116.74H125.84V125.66C125.84 131.79 121.86 133.3 117.07 132.12C116.65 131.46 116.32 129.09 116.43 127.6C120.9 129.33 121.78 127.83 121.72 124.2L121.71 117.32C119.72 117.21 117.89 118.7 116.18 121.47L116.38 116.24C118.39 113.98 121.24 112.79 124.44 112.73L133.65 112.68C135.87 112.66 137.21 111.53 138.12 110.76C139.34 111.67 139.86 112.97 139.78 114.61Z"/></svg>