<svg width="801" height="801" fill="none" viewBox="0 0 801 801"><path stroke="#fff" stroke-linecap="round" stroke-miterlimit="10" stroke-width="23.5" d="M529.296 279.017C524.941 274.37 520.338 269.961 515.508 265.81M566.117 461.916C568.335 455.946 570.23 449.861 571.793 443.687M349.159 230.451C322.017 238.582 297.221 253.103 276.85 272.795M413.913 223.545C407.564 223.045 401.192 222.888 394.826 223.074M597.896 295.021C595.171 289.895 592.248 284.876 589.134 279.977M584.437 527.51C587.735 522.733 590.846 517.829 593.763 512.81M491.44 604.802C496.74 602.433 501.946 599.86 507.046 597.087M432.848 621.882C438.591 621.032 444.298 619.958 449.958 618.664M312.885 606.672C318.234 608.929 323.668 610.977 329.176 612.812M199.965 299.188C188.12 322.646 180.493 348.005 177.433 374.105M514.438 207.515C485.502 190.331 453.067 179.885 419.542 176.952C386.016 174.019 352.26 178.674 320.78 190.572M530.757 162.825C525.445 159.9 520.036 157.153 514.54 154.59M575.596 606.625C628.425 561.688 662.014 498.207 669.449 429.251C676.884 360.295 657.598 291.113 615.562 235.948M216.255 599.387C236.798 618.339 260.149 633.998 285.48 645.81M144.736 491.176C146.772 496.889 148.999 502.531 151.413 508.095M130.382 427.442C130.991 433.475 131.803 439.487 132.816 445.466M224.424 193.775C186.308 226.197 157.913 268.54 142.386 316.11M470.15 138.433C464.292 136.864 458.383 135.491 452.434 134.318M634.868 185.952C629.865 180.467 624.671 175.159 619.296 170.038M675.435 241.449C671.727 235.017 667.795 228.716 663.647 222.559M309.226 704.862C338.393 713.553 368.657 718.011 399.092 718.099M143.364 587.799C147.745 593.793 152.335 599.631 157.125 605.304M256.403 116.585C249.779 119.939 243.275 123.523 236.903 127.332M388.762 82.4986C381.343 82.7613 373.935 83.2838 366.552 84.0652M716.369 218.552C712.238 211.357 707.862 204.305 703.25 197.408M745.029 281.706C742.334 273.859 739.372 266.106 736.148 258.461M263.622 738.545C343.444 770.722 432.073 773.641 513.84 746.786C595.607 719.931 665.246 665.032 710.447 591.794M102.35 611.097C107.147 617.867 112.173 624.471 117.42 630.899M233.621 75.5558C226.237 79.3402 218.985 83.3755 211.876 87.6545"/></svg>