<svg width="256" height="230" fill="none" viewBox="0 0 256 230"><path fill="#fff" d="M82.2857 144.65V163.064C82.2857 164.289 83.2823 165.286 84.5074 165.286H171.493C172.718 165.286 173.714 164.289 173.714 163.064V144.65C173.714 138.383 178.811 133.286 185.079 133.286H254.693L208.974 0.714233H47.0263L1.31201 133.286H70.9212C77.1886 133.286 82.2857 138.383 82.2857 144.65ZM64 23.5714H192V50.9999H182.857V32.7142H73.1429V50.9999H64V23.5714ZM50.2857 60.1428H205.714V87.5714H196.571V69.2857H59.4286V87.5714H50.2857V60.1428ZM45.7143 124.143H36.5714V96.7142H219.429V124.143H210.286V105.857H45.7143V124.143Z"/><path fill="#fff" d="M182.857 144.65V163.064C182.857 169.331 177.76 174.428 171.493 174.428H84.5074C78.24 174.428 73.1429 169.331 73.1429 163.064V144.65C73.1429 143.425 72.1463 142.428 70.9211 142.428H0V212.714C0 221.852 7.43314 229.286 16.5714 229.286H239.424C248.567 229.286 256 221.852 256 212.714V142.428H185.079C183.854 142.428 182.857 143.425 182.857 144.65Z"/></svg>