<svg width="38" height="15" viewBox="0 0 38 15"><circle cx="26.388" cy="7.537" r="2.92" fill="#fff"/><path fill="#fff" fill-rule="evenodd" d="M26.3201 14.2586C30.07 14.2586 33.1099 11.2187 33.1099 7.46878C33.1099 3.71886 30.07 0.678955 26.3201 0.678955C22.5702 0.678955 19.5303 3.71886 19.5303 7.46878C19.5303 11.2187 22.5702 14.2586 26.3201 14.2586ZM26.3201 12.9007C29.32 12.9007 31.752 10.4687 31.752 7.46882C31.752 4.46888 29.32 2.03696 26.3201 2.03696C23.3202 2.03696 20.8882 4.46888 20.8882 7.46882C20.8882 10.4687 23.3202 12.9007 26.3201 12.9007Z" clip-rule="evenodd"/><path fill="#fff" fill-rule="evenodd" d="M11.5282 0.298304L18.0098 6.77983C18.4075 7.17757 18.4075 7.82243 18.0098 8.22017L11.5282 14.7017C11.1305 15.0994 10.4856 15.0994 10.0879 14.7017C9.69015 14.304 9.69015 13.6591 10.0879 13.2614L14.8308 8.51847L6.01847 8.51847C5.45599 8.51847 5 8.06249 5 7.5V7.5C5 6.93751 5.45599 6.48153 6.01847 6.48153L14.8308 6.48153L10.0879 1.73864C9.69015 1.3409 9.69015 0.696043 10.0879 0.298304C10.4856 -0.0994347 11.1305 -0.0994347 11.5282 0.298304Z" clip-rule="evenodd"/></svg>