<svg width="150" height="257" fill="none" viewBox="0 0 150 257"><path fill="#fff" d="M37.3138 256.197C41.7959 256.197 45.3874 254.962 48.0882 252.491C50.7889 250.02 52.1106 246.572 52.0532 242.147L49.8983 117.768C49.8409 115.756 50.2144 114.061 51.0189 112.682C51.8234 111.303 53.0876 110.211 54.8114 109.406C59.6958 107.28 63.6178 104.939 66.5772 102.382C69.5365 99.8244 71.6483 96.549 72.9124 92.5552C74.1766 88.5616 74.6938 83.3468 74.464 76.9108L71.4471 9.24787C71.3322 6.8918 70.6139 5.06708 69.2922 3.77372C67.9706 2.48153 66.218 1.83544 64.0343 1.83544C61.8508 1.83544 60.1556 2.51037 58.9489 3.86022C57.7421 5.21007 57.1388 7.06304 57.1388 9.4191L57.9144 75.2731C57.9144 77.2844 57.3398 78.8359 56.1906 79.9276C55.0413 81.0194 53.576 81.5653 51.7946 81.5653C50.0133 81.5653 48.5336 81.0338 47.3556 79.9707C46.1775 78.9077 45.5885 77.428 45.5885 75.5317L44.4679 7.43668C44.4105 5.13829 43.7497 3.35712 42.4855 2.09317C41.2213 0.829232 39.4974 0.197266 37.3138 0.197266C35.0727 0.197266 33.3201 0.829232 32.0559 2.09317C30.7917 3.35712 30.1596 5.13829 30.1596 7.43668L28.9529 75.5317C28.9529 77.428 28.3782 78.9077 27.2289 79.9707C26.0797 81.0338 24.5856 81.5653 22.7467 81.5653C20.9654 81.5653 19.5144 81.0194 18.3938 79.9276C17.2733 78.8359 16.7131 77.2844 16.7131 75.2731L17.4026 9.4191C17.4026 7.06304 16.7992 5.21007 15.5925 3.86022C14.3858 2.51037 12.7193 1.83544 10.5932 1.83544C8.35214 1.83544 6.58515 2.48153 5.29226 3.77372C3.99925 5.06708 3.29531 6.8918 3.18045 9.24787L0.163581 76.9108C-0.123807 83.3468 0.364645 88.5616 1.62894 92.5552C2.89312 96.549 5.01923 99.8244 8.00726 102.382C10.9954 104.939 14.903 107.28 19.73 109.406C21.4538 110.211 22.718 111.303 23.5225 112.682C24.327 114.061 24.7292 115.756 24.7292 117.768L22.5744 242.147C22.4594 246.572 23.7523 250.02 26.4532 252.491C29.154 254.962 32.7742 256.197 37.3138 256.197ZM122.647 161.468L120.061 241.113C119.889 246.055 121.182 249.804 123.94 252.362C126.698 254.919 130.319 256.197 134.801 256.197C139.398 256.197 143.047 255.019 145.748 252.663C148.449 250.307 149.799 246.946 149.799 242.578V8.21341C149.799 5.45487 149.038 3.42891 147.515 2.13554C145.992 0.843358 144.254 0.197266 142.3 0.197266C140.289 0.197266 138.522 0.771567 136.999 1.92018C135.476 3.06996 133.881 4.85172 132.215 7.26545C127.733 13.5287 123.696 20.97 120.104 29.5896C116.513 38.2091 113.424 47.6187 110.838 57.8185C108.253 68.0183 106.27 78.6922 104.891 89.8401C103.512 100.988 102.822 112.193 102.822 123.456V129.576C102.822 133.599 103.512 136.989 104.891 139.747C106.27 142.506 108.339 144.833 111.097 146.729L117.217 150.953C119.171 152.332 120.593 153.869 121.484 155.564C122.374 157.259 122.762 159.227 122.647 161.468Z"/></svg>