<svg width="256" height="256" viewBox="0 0 256 256"><path fill="#fff" d="M83.5946 62.7713C83.5946 61.2482 84.8361 60.0135 86.3676 60.0135H99.3081C100.84 60.0135 102.081 61.2482 102.081 62.7713V83.9148C102.081 85.4379 100.84 86.6727 99.3081 86.6727H86.3676C84.8361 86.6727 83.5946 85.4379 83.5946 83.9148V62.7713Z"/><path fill="#fff" d="M118.719 62.7713C118.719 61.2482 119.96 60.0135 121.492 60.0135H134.432C135.964 60.0135 137.205 61.2482 137.205 62.7713V83.9148C137.205 85.4379 135.964 86.6727 134.432 86.6727H121.492C119.96 86.6727 118.719 85.4379 118.719 83.9148V62.7713Z"/><path fill="#fff" d="M153.843 62.7713C153.843 61.2482 155.085 60.0135 156.616 60.0135H169.557C171.088 60.0135 172.33 61.2482 172.33 62.7713V83.9148C172.33 85.4379 171.088 86.6727 169.557 86.6727H156.616C155.085 86.6727 153.843 85.4379 153.843 83.9148V62.7713Z"/><path fill="#fff" d="M153.843 116.09C153.843 114.567 155.085 113.332 156.616 113.332H169.557C171.088 113.332 172.33 114.567 172.33 116.09V137.233C172.33 138.756 171.088 139.991 169.557 139.991H156.616C155.085 139.991 153.843 138.756 153.843 137.233V116.09Z"/><path fill="#fff" d="M86.3676 113.332C84.8361 113.332 83.5946 114.567 83.5946 116.09V137.233C83.5946 138.756 84.8361 139.991 86.3676 139.991H99.3081C100.84 139.991 102.081 138.756 102.081 137.233V116.09C102.081 114.567 100.84 113.332 99.3081 113.332H86.3676Z"/><path fill="#fff" d="M121.492 113.332C119.96 113.332 118.719 114.567 118.719 116.09V137.233C118.719 138.756 119.96 139.991 121.492 139.991H134.432C135.964 139.991 137.205 138.756 137.205 137.233V116.09C137.205 114.567 135.964 113.332 134.432 113.332H121.492Z"/><path fill="#fff" fill-rule="evenodd" d="M55.8649 26C48.2075 26 42 32.1736 42 39.7892V200.664C42 208.279 48.2075 214.453 55.8649 214.453H60.4865V226.404C60.4865 228.942 62.5557 231 65.1081 231H79.8973C82.4497 231 84.5189 228.942 84.5189 226.404V214.453H170.481V226.404C170.481 228.942 172.55 231 175.103 231H189.892C192.444 231 194.514 228.942 194.514 226.404V214.453H199.135C206.793 214.453 213 208.279 213 200.664V39.7892C213 32.1736 206.793 26 199.135 26H55.8649ZM89.1405 169.408H166.784C170.868 169.408 174.178 172.701 174.178 176.762V184.117C174.178 188.178 170.868 191.471 166.784 191.471H89.1405C85.0566 191.471 81.7459 188.178 81.7459 184.117V176.762C81.7459 172.701 85.0566 169.408 89.1405 169.408ZM181.573 51.7399H74.3514C70.2674 51.7399 66.9568 55.0325 66.9568 59.0942V94.9462H188.968V59.0942C188.968 55.0325 185.657 51.7399 181.573 51.7399ZM188.968 102.3H66.9568V140.91C66.9568 144.972 70.2674 148.265 74.3514 148.265H181.573C185.657 148.265 188.968 144.972 188.968 140.91V102.3Z" clip-rule="evenodd"/></svg>