<svg width="255" height="255" viewBox="0 0 255 255"><path fill="#fff" fill-rule="evenodd" d="M127.5 232C185.214 232 232 185.214 232 127.5C232 69.7862 185.214 23 127.5 23C69.7862 23 23 69.7862 23 127.5C23 185.214 69.7862 232 127.5 232ZM137.171 147.816L139.694 70.5373H116.227L118.826 147.816H137.171ZM118.979 163.639C116.737 165.779 115.616 168.48 115.616 171.741C115.616 174.901 116.737 177.576 118.979 179.767C121.272 181.958 124.279 183.054 127.999 183.054C131.77 183.054 134.776 181.958 137.018 179.767C139.261 177.576 140.382 174.901 140.382 171.741C140.382 168.48 139.261 165.779 137.018 163.639C134.776 161.448 131.77 160.352 127.999 160.352C124.279 160.352 121.272 161.448 118.979 163.639Z" clip-rule="evenodd"/></svg>