<svg width="95" height="256" viewBox="0 0 95 256"><path fill="#fff" d="M21.3514 48.1155C13.0879 48.1155 6.37512 51.3232 3.9959 54.0848C1.13922 57.5452 -0.275792 61.9725 0.0445961 66.4483V146.874C-0.00868733 147.857 0.138992 148.841 0.478429 149.765C0.817866 150.689 1.34198 151.534 2.01889 152.248C2.69579 152.963 3.51128 153.532 4.41547 153.921C5.31967 154.31 6.29361 154.51 7.27792 154.51C8.26222 154.51 9.23617 154.31 10.1404 153.921C11.0446 153.532 11.86 152.963 12.5369 152.248C13.2139 151.534 13.738 150.689 14.0774 149.765C14.4168 148.841 14.5644 147.857 14.5111 146.874V80.32H21.0965V149.827V244.486C21.2241 247.457 22.494 250.264 24.6412 252.321C26.7885 254.378 29.6473 255.526 32.6209 255.526C35.5944 255.526 38.4531 254.378 40.6004 252.321C42.7476 250.264 44.0176 247.457 44.1452 244.486V149.827H50.5181V244.486C50.5181 247.54 51.7311 250.468 53.8904 252.628C56.0496 254.787 58.9782 256 62.0318 256C65.0854 256 68.014 254.787 70.1732 252.628C72.3325 250.468 73.5456 247.54 73.5456 244.486V149.763V80.2562H80.1522V146.811C80.2525 148.661 81.0583 150.403 82.4038 151.678C83.7493 152.952 85.5321 153.662 87.3854 153.662C89.2387 153.662 91.0216 152.952 92.3671 151.678C93.7125 150.403 94.5184 148.661 94.6187 146.811V66.4483C94.9834 61.9637 93.5548 57.5176 90.6462 54.0848C88.2883 51.3869 81.5543 48.1155 73.2907 48.1155H21.3514ZM47.4591 6.23431e-06C42.4065 0.00585223 37.5123 1.76359 33.6104 4.97363C29.7085 8.18367 27.0404 12.6474 26.0608 17.6042C25.0813 22.5609 25.8509 27.704 28.2384 32.157C30.626 36.6099 34.4837 40.0972 39.1543 42.0245C43.8249 43.9519 49.0193 44.2 53.8524 42.7266C58.6854 41.2533 62.858 38.1496 65.6591 33.9445C68.4602 29.7395 69.7165 24.6931 69.2139 19.6656C68.7113 14.638 66.481 9.94029 62.9028 6.37292C58.8018 2.28754 53.2478 -0.00436254 47.4591 6.23431e-06Z"/></svg>