<svg width="257" height="221" fill="none" viewBox="0 0 257 221"><path stroke="#fff" stroke-linecap="round" stroke-linejoin="round" stroke-width="5" d="M31.0139 52.909L50.6872 38.6635M31.0139 208.413L50.6872 193.785M50.6872 38.6635L64.4767 27.9759L76.6739 19.0452M50.6872 38.6635V193.785M50.6872 193.785L64.4767 183.48L76.6739 174.251M76.6739 174.251L97.9396 158.547V3.04284L76.6739 19.0452M76.6739 174.251V19.0452"/><rect width="27.598" height="184.449" x="3.416" y="35.59" fill="#fff" rx="8"/><circle cx="17.215" cy="22.804" r="16.273" fill="#fff"/><path fill="#fff" d="M98.735 156.022L29.3464 207.203V156.023L98.735 104.842V156.022Z"/><path stroke="#fff" stroke-linecap="round" stroke-linejoin="round" stroke-width="5" d="M226.869 53.8282L207.196 39.5827M226.869 209.332L207.196 194.705M207.196 39.5827L193.406 28.8951L181.209 19.9644M207.196 39.5827V194.705M207.196 194.705L193.406 184.399L181.209 175.17M181.209 175.17L159.943 159.466V3.96203L181.209 19.9644M181.209 175.17V19.9644"/><rect width="27.598" height="184.449" fill="#fff" rx="8" transform="matrix(-1 0 0 1 254.467 36.509)"/><circle r="16.273" fill="#fff" transform="matrix(-1 0 0 1 240.668 23.723)"/><path fill="#fff" d="M159.148 156.942L228.536 208.122V156.942L159.148 105.761V156.942Z"/></svg>