<svg width="801" height="801" fill="none" viewBox="0 0 801 801"><path fill="#fff" d="M400.01 370.221C383.322 370.221 369.931 383.612 369.931 400.4C369.931 417.088 383.322 430.479 400.01 430.479C416.698 430.479 430.089 417.088 430.089 400.4C430.089 383.512 416.698 370.221 400.01 370.221ZM400.01 420.386C389.018 420.386 380.024 411.492 380.024 400.4C380.024 389.208 388.918 380.314 400.01 380.314C411.102 380.314 419.996 389.208 419.996 400.4C419.996 411.492 411.102 420.386 400.01 420.386Z"/><path fill="#fff" d="M441.181 372.42C437.084 372.42 433.686 375.917 433.686 379.814C433.686 384.012 437.084 387.209 441.181 387.209C445.178 387.109 448.576 383.912 448.576 379.814C448.576 375.817 445.178 372.42 441.181 372.42Z"/><path fill="#fff" d="M400.11 293.476C341.052 293.476 293.286 341.242 293.286 400.2C293.286 459.158 341.052 506.924 400.01 506.924C458.968 506.924 506.734 459.158 506.734 400.2C506.734 341.342 458.968 293.576 400.11 293.476ZM468.961 429.779C468.961 441.671 462.566 447.966 450.574 447.966H349.346C337.254 447.966 330.959 441.671 330.959 429.779V371.221C330.959 359.329 337.254 353.033 349.346 353.033H363.936C368.332 353.033 369.731 352.234 372.43 349.436L376.826 344.739C379.724 341.642 382.722 340.143 388.418 340.143H411.302C416.998 340.143 419.996 341.642 422.894 344.739L427.291 349.436C429.989 352.234 431.388 353.033 435.785 353.033H450.574C462.666 353.033 468.961 359.329 468.961 371.221L468.961 429.779Z"/></svg>