<svg width="256" height="183" viewBox="0 0 256 183"><path fill="#fff" d="M193 24.0001V71.0001C193 74.3138 190.314 77.0001 187 77.0001H140V124C140 127.314 137.314 130 134 130H87V177C87 180.314 84.3137 183 81 183H5.99998C2.68628 183 -1.52588e-05 180.314 -1.52588e-05 177L-1.52588e-05 165C-1.52588e-05 161.686 2.68628 159 5.99998 159H63V112C63 108.686 65.6863 106 69 106H116V59.0001C116 55.6864 118.686 53.0001 122 53.0001H169V6.00012C169 2.6864 171.686 0.00012207 175 0.00012207L250 0.00012207C253.314 0.00012207 256 2.6864 256 6.00012V18.0001C256 21.3138 253.314 24.0001 250 24.0001L193 24.0001Z"/></svg>