<svg width="256" height="136" viewBox="0 0 256 136"><path fill="#fff" d="M127.872 71.0516L234.245 106.91C242.819 109.653 244.555 112.354 244.555 115.74C244.555 118.014 243.651 120.195 242.044 121.802C240.436 123.41 238.255 124.313 235.981 124.313H19.8044C17.5306 124.313 15.3499 123.41 13.7421 121.802C12.1343 120.195 11.2311 118.014 11.2311 115.74C11.2311 111.711 13.0743 110.103 21.6476 106.845L127.872 71.0516ZM127.872 0C121.48 0.0200411 115.324 2.41947 110.605 6.73056C105.886 11.0417 102.941 16.9555 102.344 23.3195H113.854C114.32 20.6312 115.544 18.1319 117.382 16.1158C119.22 14.0998 121.596 12.6511 124.231 11.9401C126.865 11.2291 129.647 11.2856 132.25 12.1028C134.853 12.9201 137.169 14.4641 138.924 16.553C140.679 18.642 141.8 21.1889 142.156 23.8939C142.513 26.5989 142.089 29.3494 140.934 31.8214C139.78 34.2935 137.943 36.3841 135.64 37.8473C133.337 39.3105 130.664 40.0853 127.936 40.0804H122.235V60.5707L17.9183 96.1929C10.3523 99.065 0 102.987 0 115.783C-3.04748e-06 121.077 2.10158 126.155 5.84315 129.901C9.58473 133.646 14.6602 135.753 19.9545 135.759H237.396L238.018 135.63C242.948 135.155 247.524 132.858 250.85 129.187C254.176 125.516 256.012 120.736 256 115.783C256 103.437 245.626 98.6363 237.824 96.1286L133.637 60.6135V50.9471L135.352 50.4327C141.278 48.6663 146.37 44.8236 149.694 39.6087C153.018 34.3939 154.352 28.1559 153.451 22.0377C152.55 15.9196 149.475 10.3308 144.789 6.29526C140.103 2.25973 134.12 0.0476422 127.936 0.0642975L127.872 0Z"/></svg>