<svg width="251" height="257" fill="none" viewBox="0 0 251 257"><path fill="#fff" fill-rule="evenodd" d="M125.554 76.898C146.69 76.898 163.687 59.6838 163.687 38.5473C163.687 17.4108 146.69 0.196533 125.554 0.196533C104.417 0.196533 87.203 17.1929 87.203 38.5473C87.203 59.6838 104.417 76.898 125.554 76.898ZM163.469 86.05C180.901 86.7037 188.31 100.649 188.31 100.649L244.747 178.222C247.144 181.709 248.451 185.849 248.451 190.425C248.451 202.41 238.645 212.215 226.661 212.215C223.828 212.215 221.213 211.561 218.598 210.69L184.606 201.102V235.095H66.5023V201.102L32.5096 210.69C30.1127 211.561 27.4979 212.215 24.4473 212.215C12.4627 212.215 2.65708 202.41 2.65708 190.425C2.65708 185.849 3.9645 181.709 6.36142 178.222L62.798 100.649C62.798 100.649 70.2067 86.7037 87.6388 86.05H163.469ZM244.744 256.197C247.795 256.197 250.191 253.146 250.191 249.006C250.191 244.866 247.795 241.815 244.744 241.815H5.92338C2.87275 241.815 0.47583 245.084 0.47583 249.006C0.47583 252.928 2.87275 256.197 5.92338 256.197H244.744ZM63.215 113.883V195.319C108.605 195.319 123.724 214.937 123.724 214.937V138.368C123.724 138.368 108.605 113.883 63.215 113.883ZM126.932 138.368C126.932 138.368 142.051 113.883 187.453 113.883V195.319C142.051 195.319 126.932 214.937 126.932 214.937V138.368Z" clip-rule="evenodd"/><path fill="#fff" d="M72.8102 156.06C83.825 152.867 95.343 159.207 98.5362 170.222C101.729 181.237 95.3888 192.755 84.3739 195.948L29.885 211.745C18.8702 214.938 7.35223 208.597 4.15898 197.582C0.965742 186.568 7.3064 175.05 18.3212 171.856L72.8102 156.06Z"/><path fill="#fff" d="M166.894 195.946C155.879 192.753 149.539 181.234 152.733 170.22C155.926 159.205 167.445 152.865 178.459 156.059L232.947 171.858C243.962 175.052 250.302 186.57 247.108 197.585C243.915 208.6 232.396 214.94 221.382 211.746L166.894 195.946Z"/></svg>