<svg width="257" height="240" fill="none" viewBox="0 0 257 240"><path fill="#fff" d="M0.467041 124.731V181.804C0.467041 196.206 12.1421 207.881 26.5439 207.881V207.881C41.9716 207.881 54.0265 194.56 52.4914 179.209L47.0435 124.731H0.467041Z"/><path fill="#fff" d="M210 124.731L204.482 179.195C202.926 194.547 214.977 207.881 230.408 207.881V207.881C244.8 207.881 256.467 196.214 256.467 181.822V124.731H210Z"/><path fill="#fff" d="M40.467 0.513794C18.3756 0.513794 0.467041 18.4224 0.467041 40.5138V140.792C0.467041 140.792 20.5775 140.792 22.223 140.792C48.1355 140.792 69.5715 121.653 73.184 96.7408C108.063 78.1513 132.321 42.2573 134.486 0.513794H40.467Z"/><path fill="#fff" d="M122.448 0.513794C124.613 42.2573 148.872 78.1523 183.75 96.7408C187.363 121.653 208.799 140.792 234.711 140.792C236.357 140.792 256.467 140.792 256.467 140.792V40.5138C256.467 18.4224 238.558 0.513794 216.467 0.513794H122.448Z"/><path fill="#fff" d="M98.2405 147.46C100.257 150.795 104.503 152.012 107.98 150.253L115.843 146.274V229.902C108.106 230.366 102.274 232.413 102.274 234.868C102.274 237.664 109.84 239.931 119.171 239.931C128.504 239.931 136.069 237.664 136.069 234.868C136.069 232.413 130.238 230.366 122.5 229.902V142.905L133.13 137.526C137.11 138.863 141.629 138.51 145.502 136.167C152.492 131.939 154.732 122.844 150.506 115.854C146.276 108.862 137.183 106.623 130.192 110.85C126.319 113.193 123.907 117.03 123.242 121.175L100.291 137.538C97.1177 139.801 96.2239 144.126 98.2405 147.46V147.46Z"/></svg>