<svg width="256" height="256" fill="none" viewBox="0 0 256 256"><path fill="#fff" d="M12 92H20V84H16C13.79 84 12 85.79 12 88"/><path fill="#fff" d="M20 92H12V96C12 98.21 13.79 100 16 100C18.21 100 20 98.21 20 96"/><path fill="#fff" d="M12 124H20V120C20 117.79 18.21 116 16 116C13.79 116 12 117.79 12 120"/><path fill="#fff" d="M20 148V140H12V144C12 146.21 13.79 148 16 148"/><path fill="#fff" d="M20 84H28V80C28 77.79 26.21 76 24 76C21.79 76 20 77.79 20 80"/><path fill="#fff" d="M28 84H20V92H24C26.21 92 28 90.21 28 88"/><path fill="#fff" d="M28 108V100H24C21.79 100 20 101.79 20 104C20 106.21 21.79 108 24 108"/><path fill="#fff" d="M20 124V132H24C26.21 132 28 130.21 28 128C28 125.79 26.21 124 24 124"/><path fill="#fff" d="M28 172V164H24C21.79 164 20 165.79 20 168C20 170.21 21.79 172 24 172"/><path fill="#fff" d="M28 100V108H32C34.21 108 36 106.21 36 104C36 101.79 34.21 100 32 100"/><path fill="#fff" d="M28 140H36V136C36 133.79 34.21 132 32 132C29.79 132 28 133.79 28 136"/><path fill="#fff" d="M28 164H36V160C36 157.79 34.21 156 32 156C29.79 156 28 157.79 28 160"/><path fill="#fff" d="M36 180V172H28V176C28 178.21 29.79 180 32 180"/><path fill="#fff" d="M36 84H44V76H40C37.79 76 36 77.79 36 80"/><path fill="#fff" d="M44 92V84H36V88C36 90.21 37.79 92 40 92"/><path fill="#fff" d="M44 132V124H40C37.79 124 36 125.79 36 128C36 130.21 37.79 132 40 132"/><path fill="#fff" d="M36 140V148H44V144C44 141.79 42.21 140 40 140"/><path fill="#fff" d="M44 156V148H36V152C36 154.21 37.79 156 40 156"/><path fill="#fff" d="M36 172V180H40C42.21 180 44 178.21 44 176C44 173.79 42.21 172 40 172"/><path fill="#fff" d="M44 76V84H52V80C52 77.79 50.21 76 48 76"/><path fill="#fff" d="M52 100V92H44V96C44 98.21 45.79 100 48 100"/><path fill="#fff" d="M44 124V132H52V128C52 125.79 50.21 124 48 124"/><path fill="#fff" d="M52 140V132H44V136C44 138.21 45.79 140 48 140"/><path fill="#fff" d="M44 148V156H48C50.21 156 52 154.21 52 152C52 149.79 50.21 148 48 148"/><path fill="#fff" d="M52 84V92H60V88C60 85.79 58.21 84 56 84"/><path fill="#fff" d="M52 132V140H56C58.21 140 60 138.21 60 136C60 133.79 58.21 132 56 132"/><path fill="#fff" d="M60 180V172H56C53.79 172 52 173.79 52 176C52 178.21 53.79 180 56 180"/><path fill="#fff" d="M68 84V76H64C61.79 76 60 77.79 60 80C60 82.21 61.79 84 64 84"/><path fill="#fff" d="M68 148V140H64C61.79 140 60 141.79 60 144C60 146.21 61.79 148 64 148"/><path fill="#fff" d="M60 172V180H64C66.21 180 68 178.21 68 176C68 173.79 66.21 172 64 172"/><path fill="#fff" d="M76 44H84V36H80C77.79 36 76 37.79 76 40"/><path fill="#fff" d="M84 60H76V64C76 66.21 77.79 68 80 68C82.21 68 84 66.21 84 64"/><path fill="#fff" d="M76 116H84V108H80C77.79 108 76 109.79 76 112"/><path fill="#fff" d="M84 156V148H76V152C76 154.21 77.79 156 80 156"/><path fill="#fff" d="M76 188H84V180H80C77.79 180 76 181.79 76 184"/><path fill="#fff" d="M84 188H76V192C76 194.21 77.79 196 80 196C82.21 196 84 194.21 84 192"/><path fill="#fff" d="M76 212H84V204H80C77.79 204 76 205.79 76 208"/><path fill="#fff" d="M84 220V212H76V216C76 218.21 77.79 220 80 220"/><path fill="#fff" d="M84 236V228H80C77.79 228 76 229.79 76 232C76 234.21 77.79 236 80 236"/><path fill="#fff" d="M92 20V12H88C85.79 12 84 13.79 84 16C84 18.21 85.79 20 88 20"/><path fill="#fff" d="M84 76V84H88C90.21 84 92 82.21 92 80C92 77.79 90.21 76 88 76"/><path fill="#fff" d="M84 92V100H88C90.21 100 92 98.21 92 96C92 93.79 90.21 92 88 92"/><path fill="#fff" d="M84 108V116H92V112C92 109.79 90.21 108 88 108"/><path fill="#fff" d="M92 164H84V168C84 170.21 85.79 172 88 172C90.21 172 92 170.21 92 168"/><path fill="#fff" d="M84 204H92V200C92 197.79 90.21 196 88 196C85.79 196 84 197.79 84 200"/><path fill="#fff" d="M92 228H84V236H88C90.21 236 92 234.21 92 232"/><path fill="#fff" d="M100 52V44H92V48C92 50.21 93.79 52 96 52"/><path fill="#fff" d="M92 68H100V64C100 61.79 98.21 60 96 60C93.79 60 92 61.79 92 64"/><path fill="#fff" d="M100 68H92V72C92 74.21 93.79 76 96 76C98.21 76 100 74.21 100 72"/><path fill="#fff" d="M92 180V188H100V184C100 181.79 98.21 180 96 180"/><path fill="#fff" d="M100 188H92V192C92 194.21 93.79 196 96 196C98.21 196 100 194.21 100 192"/><path fill="#fff" d="M92 212V220H100V216C100 213.79 98.21 212 96 212"/><path fill="#fff" d="M100 220H92V228H96C98.21 228 100 226.21 100 224"/><path fill="#fff" d="M100 36V44H108V40C108 37.79 106.21 36 104 36"/><path fill="#fff" d="M108 44H100V52H104C106.21 52 108 50.21 108 48"/><path fill="#fff" d="M100 84H108V76H104C101.79 76 100 77.79 100 80"/><path fill="#fff" d="M108 92V84H100V88C100 90.21 101.79 92 104 92"/><path fill="#fff" d="M108 180V172H104C101.79 172 100 173.79 100 176C100 178.21 101.79 180 104 180"/><path fill="#fff" d="M100 204H108V200C108 197.79 106.21 196 104 196C101.79 196 100 197.79 100 200"/><path fill="#fff" d="M108 204H100V208C100 210.21 101.79 212 104 212C106.21 212 108 210.21 108 208"/><path fill="#fff" d="M108 12V20H116V16C116 13.79 114.21 12 112 12"/><path fill="#fff" d="M116 20H108V24C108 26.21 109.79 28 112 28C114.21 28 116 26.21 116 24"/><path fill="#fff" d="M108 68H116V64C116 61.79 114.21 60 112 60C109.79 60 108 61.79 108 64"/><path fill="#fff" d="M108 172V180H116V176C116 173.79 114.21 172 112 172"/><path fill="#fff" d="M116 196V188H108V192C108 194.21 109.79 196 112 196"/><path fill="#fff" d="M116 236V228H112C109.79 228 108 229.79 108 232C108 234.21 109.79 236 112 236"/><path fill="#fff" d="M116 36H124V28H120C117.79 28 116 29.79 116 32"/><path fill="#fff" d="M124 44V36H116V40C116 42.21 117.79 44 120 44"/><path fill="#fff" d="M124 84H116V92H120C122.21 92 124 90.21 124 88"/><path fill="#fff" d="M116 228H124V224C124 221.79 122.21 220 120 220C117.79 220 116 221.79 116 224"/><path fill="#fff" d="M124 244V236H116V240C116 242.21 117.79 244 120 244"/><path fill="#fff" d="M124 20H132V12H128C125.79 12 124 13.79 124 16"/><path fill="#fff" d="M132 52V44H124V48C124 50.21 125.79 52 128 52"/><path fill="#fff" d="M124 68H132V64C132 61.79 130.21 60 128 60C125.79 60 124 61.79 124 64"/><path fill="#fff" d="M132 76H124V84H128C130.21 84 132 82.21 132 80"/><path fill="#fff" d="M132 196H124V200C124 202.21 125.79 204 128 204C130.21 204 132 202.21 132 200"/><path fill="#fff" d="M132 220V212H128C125.79 212 124 213.79 124 216C124 218.21 125.79 220 128 220"/><path fill="#fff" d="M124 236V244H128C130.21 244 132 242.21 132 240C132 237.79 130.21 236 128 236"/><path fill="#fff" d="M132 12V20H136C138.21 20 140 18.21 140 16C140 13.79 138.21 12 136 12"/><path fill="#fff" d="M132 68V76H136C138.21 76 140 74.21 140 72C140 69.79 138.21 68 136 68"/><path fill="#fff" d="M140 92V84H136C133.79 84 132 85.79 132 88C132 90.21 133.79 92 136 92"/><path fill="#fff" d="M140 180V172H136C133.79 172 132 173.79 132 176C132 178.21 133.79 180 136 180"/><path fill="#fff" d="M132 188V196H136C138.21 196 140 194.21 140 192C140 189.79 138.21 188 136 188"/><path fill="#fff" d="M132 212H140V208C140 205.79 138.21 204 136 204C133.79 204 132 205.79 132 208"/><path fill="#fff" d="M140 220H132V224C132 226.21 133.79 228 136 228C138.21 228 140 226.21 140 224"/><path fill="#fff" d="M140 28V36H148V32C148 29.79 146.21 28 144 28"/><path fill="#fff" d="M148 44H140V52H144C146.21 52 148 50.21 148 48"/><path fill="#fff" d="M140 172V180H144C146.21 180 148 178.21 148 176C148 173.79 146.21 172 144 172"/><path fill="#fff" d="M148 20H156V12H152C149.79 12 148 13.79 148 16"/><path fill="#fff" d="M156 28V20H148V24C148 26.21 149.79 28 152 28"/><path fill="#fff" d="M156 172V164H152C149.79 164 148 165.79 148 168C148 170.21 149.79 172 152 172"/><path fill="#fff" d="M148 212H156V204H152C149.79 204 148 205.79 148 208"/><path fill="#fff" d="M156 220H148V224C148 226.21 149.79 228 152 228C154.21 228 156 226.21 156 224"/><path fill="#fff" d="M164 36H156V44H160C162.21 44 164 42.21 164 40"/><path fill="#fff" d="M156 164V172H164V168C164 165.79 162.21 164 160 164"/><path fill="#fff" d="M164 180V172H156V176C156 178.21 157.79 180 160 180"/><path fill="#fff" d="M164 84H172V76H168C165.79 76 164 77.79 164 80"/><path fill="#fff" d="M172 108V100H164V104C164 106.21 165.79 108 168 108"/><path fill="#fff" d="M164 140H172V136C172 133.79 170.21 132 168 132C165.79 132 164 133.79 164 136"/><path fill="#fff" d="M172 148V140H164V144C164 146.21 165.79 148 168 148"/><path fill="#fff" d="M172 196V188H164V192C164 194.21 165.79 196 168 196"/><path fill="#fff" d="M164 228H172V220H168C165.79 220 164 221.79 164 224"/><path fill="#fff" d="M172 228H164V232C164 234.21 165.79 236 168 236C170.21 236 172 234.21 172 232"/><path fill="#fff" d="M172 12V20H180V16C180 13.79 178.21 12 176 12"/><path fill="#fff" d="M180 20H172V28H176C178.21 28 180 26.21 180 24"/><path fill="#fff" d="M172 44H180V40C180 37.79 178.21 36 176 36C173.79 36 172 37.79 172 40"/><path fill="#fff" d="M180 44H172V48C172 50.21 173.79 52 176 52C178.21 52 180 50.21 180 48"/><path fill="#fff" d="M172 68H180V64C180 61.79 178.21 60 176 60C173.79 60 172 61.79 172 64"/><path fill="#fff" d="M180 132V124H176C173.79 124 172 125.79 172 128C172 130.21 173.79 132 176 132"/><path fill="#fff" d="M180 156V148H172V152C172 154.21 173.79 156 176 156"/><path fill="#fff" d="M172 172H180V164H176C173.79 164 172 165.79 172 168"/><path fill="#fff" d="M180 76V84H184C186.21 84 188 82.21 188 80C188 77.79 186.21 76 184 76"/><path fill="#fff" d="M180 100H188V92H184C181.79 92 180 93.79 180 96"/><path fill="#fff" d="M180 124V132H188V128C188 125.79 186.21 124 184 124"/><path fill="#fff" d="M188 228H180V232C180 234.21 181.79 236 184 236C186.21 236 188 234.21 188 232"/><path fill="#fff" d="M188 92V100H196V96C196 93.79 194.21 92 192 92"/><path fill="#fff" d="M196 100H188V108H192C194.21 108 196 106.21 196 104"/><path fill="#fff" d="M188 132V140H192C194.21 140 196 138.21 196 136C196 133.79 194.21 132 192 132"/><path fill="#fff" d="M188 220V228H192C194.21 228 196 226.21 196 224C196 221.79 194.21 220 192 220"/><path fill="#fff" d="M204 84V76H200C197.79 76 196 77.79 196 80C196 82.21 197.79 84 200 84"/><path fill="#fff" d="M196 164H204V160C204 157.79 202.21 156 200 156C197.79 156 196 157.79 196 160"/><path fill="#fff" d="M204 212H196V216C196 218.21 197.79 220 200 220C202.21 220 204 218.21 204 216"/><path fill="#fff" d="M212 100V92H204V96C204 98.21 205.79 100 208 100"/><path fill="#fff" d="M204 132H212V128C212 125.79 210.21 124 208 124C205.79 124 204 125.79 204 128"/><path fill="#fff" d="M212 132H204V136C204 138.21 205.79 140 208 140C210.21 140 212 138.21 212 136"/><path fill="#fff" d="M204 164V172H212V168C212 165.79 210.21 164 208 164"/><path fill="#fff" d="M212 204H204V212H208C210.21 212 212 210.21 212 208"/><path fill="#fff" d="M212 76V84H216C218.21 84 220 82.21 220 80C220 77.79 218.21 76 216 76"/><path fill="#fff" d="M220 100H212V104C212 106.21 213.79 108 216 108C218.21 108 220 106.21 220 104"/><path fill="#fff" d="M220 164V156H216C213.79 156 212 157.79 212 160C212 162.21 213.79 164 216 164"/><path fill="#fff" d="M212 228H220V224C220 221.79 218.21 220 216 220C213.79 220 212 221.79 212 224"/><path fill="#fff" d="M220 236V228H212V232C212 234.21 213.79 236 216 236"/><path fill="#fff" d="M220 92H228V84H224C221.79 84 220 85.79 220 88"/><path fill="#fff" d="M220 156V164H224C226.21 164 228 162.21 228 160C228 157.79 226.21 156 224 156"/><path fill="#fff" d="M220 180H228V176C228 173.79 226.21 172 224 172C221.79 172 220 173.79 220 176"/><path fill="#fff" d="M228 188V180H220V184C220 186.21 221.79 188 224 188"/><path fill="#fff" d="M220 196V204H228V200C228 197.79 226.21 196 224 196"/><path fill="#fff" d="M228 212V204H220V208C220 210.21 221.79 212 224 212"/><path fill="#fff" d="M220 228V236H228V232C228 229.79 226.21 228 224 228"/><path fill="#fff" d="M228 244V236H220V240C220 242.21 221.79 244 224 244"/><path fill="#fff" d="M228 84H236V80C236 77.79 234.21 76 232 76C229.79 76 228 77.79 228 80"/><path fill="#fff" d="M236 116V108H228V112C228 114.21 229.79 116 232 116"/><path fill="#fff" d="M236 132V124H232C229.79 124 228 125.79 228 128C228 130.21 229.79 132 232 132"/><path fill="#fff" d="M236 148V140H232C229.79 140 228 141.79 228 144C228 146.21 229.79 148 232 148"/><path fill="#fff" d="M236 172V164H232C229.79 164 228 165.79 228 168C228 170.21 229.79 172 232 172"/><path fill="#fff" d="M228 180V188H236V184C236 181.79 234.21 180 232 180"/><path fill="#fff" d="M236 188H228V192C228 194.21 229.79 196 232 196C234.21 196 236 194.21 236 192"/><path fill="#fff" d="M236 220H228V224C228 226.21 229.79 228 232 228C234.21 228 236 226.21 236 224"/><path fill="#fff" d="M228 236V244H232C234.21 244 236 242.21 236 240C236 237.79 234.21 236 232 236"/><path fill="#fff" d="M236 108V116H240C242.21 116 244 114.21 244 112C244 109.79 242.21 108 240 108"/><path fill="#fff" d="M236 124V132H244V128C244 125.79 242.21 124 240 124"/><path fill="#fff" d="M244 140H236V148H240C242.21 148 244 146.21 244 144"/><path fill="#fff" d="M236 164V172H244V168C244 165.79 242.21 164 240 164"/><path fill="#fff" d="M244 172H236V176C236 178.21 237.79 180 240 180C242.21 180 244 178.21 244 176"/><path fill="#fff" d="M236 204H244V200C244 197.79 242.21 196 240 196C237.79 196 236 197.79 236 200"/><path fill="#fff" d="M244 204H236V212H240C242.21 212 244 210.21 244 208"/><path fill="#fff" d="M12 32V48C12 59.05 20.95 68 32 68H48C59.05 68 68 59.05 68 48V32C68 20.95 59.05 12 48 12H32C20.95 12 12 20.95 12 32ZM32 20H48C54.63 20 60 25.37 60 32V48C60 54.63 54.63 60 48 60H32C25.37 60 20 54.63 20 48V32C20 25.37 25.37 20 32 20Z"/><path fill="#fff" d="M28 36H36V28H32C29.79 28 28 29.79 28 32"/><path fill="#fff" d="M36 52V44H28V48C28 50.21 29.79 52 32 52"/><path fill="#fff" d="M44 28V36H52V32C52 29.79 50.21 28 48 28"/><path fill="#fff" d="M52 44H44V52H48C50.21 52 52 50.21 52 48"/><path fill="#fff" d="M224 12H208C196.95 12 188 20.95 188 32V48C188 59.05 196.95 68 208 68H224C235.05 68 244 59.05 244 48V32C244 20.95 235.05 12 224 12ZM236 32V48C236 54.63 230.63 60 224 60H208C201.37 60 196 54.63 196 48V32C196 25.37 201.37 20 208 20H224C230.63 20 236 25.37 236 32Z"/><path fill="#fff" d="M204 36H212V28H208C205.79 28 204 29.79 204 32"/><path fill="#fff" d="M212 52V44H204V48C204 50.21 205.79 52 208 52"/><path fill="#fff" d="M220 28V36H228V32C228 29.79 226.21 28 224 28"/><path fill="#fff" d="M228 44H220V52H224C226.21 52 228 50.21 228 48"/><path fill="#fff" d="M32 244H48C59.05 244 68 235.05 68 224V208C68 196.95 59.05 188 48 188H32C20.95 188 12 196.95 12 208V224C12 235.05 20.95 244 32 244ZM20 224V208C20 201.37 25.37 196 32 196H48C54.63 196 60 201.37 60 208V224C60 230.63 54.63 236 48 236H32C25.37 236 20 230.63 20 224Z"/><path fill="#fff" d="M28 212H36V204H32C29.79 204 28 205.79 28 208"/><path fill="#fff" d="M36 228V220H28V224C28 226.21 29.79 228 32 228"/><path fill="#fff" d="M44 204V212H52V208C52 205.79 50.21 204 48 204"/><path fill="#fff" d="M52 220H44V228H48C50.21 228 52 226.21 52 224"/><path fill="#fff" d="M20 124H12V132H20V124Z"/><path fill="#fff" d="M20 132H12V140H20V132Z"/><path fill="#fff" d="M28 140H20V148H28V140Z"/><path fill="#fff" d="M36 140H28V148H36V140Z"/><path fill="#fff" d="M36 164H28V172H36V164Z"/><path fill="#fff" d="M52 84H44V92H52V84Z"/><path fill="#fff" d="M60 92H52V100H60V92Z"/><path fill="#fff" d="M68 92H60V100H68V92Z"/><path fill="#fff" d="M76 76H68V84H76V76Z"/><path fill="#fff" d="M76 84H68V92H76V84Z"/><path fill="#fff" d="M76 92H68V100H76V92Z"/><path fill="#fff" d="M76 140H68V148H76V140Z"/><path fill="#fff" d="M84 44H76V52H84V44Z"/><path fill="#fff" d="M84 52H76V60H84V52Z"/><path fill="#fff" d="M84 76H76V84H84V76Z"/><path fill="#fff" d="M84 92H76V100H84V92Z"/><path fill="#fff" d="M84 116H76V124H84V116Z"/><path fill="#fff" d="M84 124H76V132H84V124Z"/><path fill="#fff" d="M84 132H76V140H84V132Z"/><path fill="#fff" d="M84 140H76V148H84V140Z"/><path fill="#fff" d="M92 36H84V44H92V36Z"/><path fill="#fff" d="M92 116H84V124H92V116Z"/><path fill="#fff" d="M92 124H84V132H92V124Z"/><path fill="#fff" d="M92 132H84V140H92V132Z"/><path fill="#fff" d="M92 140H84V148H92V140Z"/><path fill="#fff" d="M92 148H84V156H92V148Z"/><path fill="#fff" d="M92 156H84V164H92V156Z"/><path fill="#fff" d="M92 180H84V188H92V180Z"/><path fill="#fff" d="M92 204H84V212H92V204Z"/><path fill="#fff" d="M92 212H84V220H92V212Z"/><path fill="#fff" d="M92 220H84V228H92V220Z"/><path fill="#fff" d="M100 12H92V20H100V12Z"/><path fill="#fff" d="M100 36H92V44H100V36Z"/><path fill="#fff" d="M108 12H100V20H108V12Z"/><path fill="#fff" d="M116 68H108V76H116V68Z"/><path fill="#fff" d="M116 76H108V84H116V76Z"/><path fill="#fff" d="M116 84H108V92H116V84Z"/><path fill="#fff" d="M116 180H108V188H116V180Z"/><path fill="#fff" d="M124 68H116V76H124V68Z"/><path fill="#fff" d="M124 76H116V84H124V76Z"/><path fill="#fff" d="M124 188H116V196H124V188Z"/><path fill="#fff" d="M124 228H116V236H124V228Z"/><path fill="#fff" d="M132 20H124V28H132V20Z"/><path fill="#fff" d="M132 28H124V36H132V28Z"/><path fill="#fff" d="M132 36H124V44H132V36Z"/><path fill="#fff" d="M132 68H124V76H132V68Z"/><path fill="#fff" d="M132 188H124V196H132V188Z"/><path fill="#fff" d="M140 28H132V36H140V28Z"/><path fill="#fff" d="M140 36H132V44H140V36Z"/><path fill="#fff" d="M140 44H132V52H140V44Z"/><path fill="#fff" d="M140 212H132V220H140V212Z"/><path fill="#fff" d="M148 36H140V44H148V36Z"/><path fill="#fff" d="M148 84H140V92H148V84Z"/><path fill="#fff" d="M148 212H140V220H148V212Z"/><path fill="#fff" d="M156 36H148V44H156V36Z"/><path fill="#fff" d="M156 84H148V92H156V84Z"/><path fill="#fff" d="M156 212H148V220H156V212Z"/><path fill="#fff" d="M164 12H156V20H164V12Z"/><path fill="#fff" d="M164 20H156V28H164V20Z"/><path fill="#fff" d="M164 28H156V36H164V28Z"/><path fill="#fff" d="M164 84H156V92H164V84Z"/><path fill="#fff" d="M164 204H156V212H164V204Z"/><path fill="#fff" d="M172 12H164V20H172V12Z"/><path fill="#fff" d="M172 20H164V28H172V20Z"/><path fill="#fff" d="M172 84H164V92H172V84Z"/><path fill="#fff" d="M172 92H164V100H172V92Z"/><path fill="#fff" d="M172 172H164V180H172V172Z"/><path fill="#fff" d="M172 180H164V188H172V180Z"/><path fill="#fff" d="M172 204H164V212H172V204Z"/><path fill="#fff" d="M180 68H172V76H180V68Z"/><path fill="#fff" d="M180 76H172V84H180V76Z"/><path fill="#fff" d="M180 100H172V108H180V100Z"/><path fill="#fff" d="M180 140H172V148H180V140Z"/><path fill="#fff" d="M180 172H172V180H180V172Z"/><path fill="#fff" d="M180 180H172V188H180V180Z"/><path fill="#fff" d="M180 188H172V196H180V188Z"/><path fill="#fff" d="M180 196H172V204H180V196Z"/><path fill="#fff" d="M180 204H172V212H180V204Z"/><path fill="#fff" d="M180 212H172V220H180V212Z"/><path fill="#fff" d="M180 220H172V228H180V220Z"/><path fill="#fff" d="M188 100H180V108H188V100Z"/><path fill="#fff" d="M188 132H180V140H188V132Z"/><path fill="#fff" d="M188 140H180V148H188V140Z"/><path fill="#fff" d="M188 148H180V156H188V148Z"/><path fill="#fff" d="M188 156H180V164H188V156Z"/><path fill="#fff" d="M188 164H180V172H188V164Z"/><path fill="#fff" d="M188 172H180V180H188V172Z"/><path fill="#fff" d="M188 204H180V212H188V204Z"/><path fill="#fff" d="M188 212H180V220H188V212Z"/><path fill="#fff" d="M188 220H180V228H188V220Z"/><path fill="#fff" d="M196 164H188V172H196V164Z"/><path fill="#fff" d="M196 172H188V180H196V172Z"/><path fill="#fff" d="M196 204H188V212H196V204Z"/><path fill="#fff" d="M204 164H196V172H204V164Z"/><path fill="#fff" d="M204 172H196V180H204V172Z"/><path fill="#fff" d="M204 204H196V212H204V204Z"/><path fill="#fff" d="M212 76H204V84H212V76Z"/><path fill="#fff" d="M212 84H204V92H212V84Z"/><path fill="#fff" d="M212 172H204V180H212V172Z"/><path fill="#fff" d="M212 180H204V188H212V180Z"/><path fill="#fff" d="M212 188H204V196H212V188Z"/><path fill="#fff" d="M212 196H204V204H212V196Z"/><path fill="#fff" d="M220 92H212V100H220V92Z"/><path fill="#fff" d="M220 196H212V204H220V196Z"/><path fill="#fff" d="M228 92H220V100H228V92Z"/><path fill="#fff" d="M236 84H228V92H236V84Z"/><path fill="#fff" d="M236 92H228V100H236V92Z"/><path fill="#fff" d="M236 100H228V108H236V100Z"/><path fill="#fff" d="M236 204H228V212H236V204Z"/><path fill="#fff" d="M236 212H228V220H236V212Z"/><path fill="#fff" d="M244 132H236V140H244V132Z"/><path fill="#fff" d="M36 36H28V44H36V36Z"/><path fill="#fff" d="M44 28H36V36H44V28Z"/><path fill="#fff" d="M44 36H36V44H44V36Z"/><path fill="#fff" d="M44 44H36V52H44V44Z"/><path fill="#fff" d="M52 36H44V44H52V36Z"/><path fill="#fff" d="M212 36H204V44H212V36Z"/><path fill="#fff" d="M220 28H212V36H220V28Z"/><path fill="#fff" d="M220 36H212V44H220V36Z"/><path fill="#fff" d="M220 44H212V52H220V44Z"/><path fill="#fff" d="M228 36H220V44H228V36Z"/><path fill="#fff" d="M36 212H28V220H36V212Z"/><path fill="#fff" d="M44 204H36V212H44V204Z"/><path fill="#fff" d="M44 212H36V220H44V212Z"/><path fill="#fff" d="M44 220H36V228H44V220Z"/><path fill="#fff" d="M52 212H44V220H52V212Z"/><path fill="#fff" d="M16 164C18.2091 164 20 162.209 20 160C20 157.791 18.2091 156 16 156C13.7909 156 12 157.791 12 160C12 162.209 13.7909 164 16 164Z"/><path fill="#fff" d="M32 124C34.2091 124 36 122.209 36 120C36 117.791 34.2091 116 32 116C29.7909 116 28 117.791 28 120C28 122.209 29.7909 124 32 124Z"/><path fill="#fff" d="M48 116C50.2091 116 52 114.209 52 112C52 109.791 50.2091 108 48 108C45.7909 108 44 109.791 44 112C44 114.209 45.7909 116 48 116Z"/><path fill="#fff" d="M48 172C50.2091 172 52 170.209 52 168C52 165.791 50.2091 164 48 164C45.7909 164 44 165.791 44 168C44 170.209 45.7909 172 48 172Z"/><path fill="#fff" d="M56 124C58.2091 124 60 122.209 60 120C60 117.791 58.2091 116 56 116C53.7909 116 52 117.791 52 120C52 122.209 53.7909 124 56 124Z"/><path fill="#fff" d="M64 116C66.2091 116 68 114.209 68 112C68 109.791 66.2091 108 64 108C61.7909 108 60 109.791 60 112C60 114.209 61.7909 116 64 116Z"/><path fill="#fff" d="M64 132C66.2091 132 68 130.209 68 128C68 125.791 66.2091 124 64 124C61.7909 124 60 125.791 60 128C60 130.209 61.7909 132 64 132Z"/><path fill="#fff" d="M64 164C66.2091 164 68 162.209 68 160C68 157.791 66.2091 156 64 156C61.7909 156 60 157.791 60 160C60 162.209 61.7909 164 64 164Z"/><path fill="#fff" d="M80 28C82.2091 28 84 26.2091 84 24C84 21.7909 82.2091 20 80 20C77.7909 20 76 21.7909 76 24C76 26.2091 77.7909 28 80 28Z"/><path fill="#fff" d="M104 244C106.209 244 108 242.209 108 240C108 237.791 106.209 236 104 236C101.791 236 100 237.791 100 240C100 242.209 101.791 244 104 244Z"/><path fill="#fff" d="M112 220C114.209 220 116 218.209 116 216C116 213.791 114.209 212 112 212C109.791 212 108 213.791 108 216C108 218.209 109.791 220 112 220Z"/><path fill="#fff" d="M120 212C122.209 212 124 210.209 124 208C124 205.791 122.209 204 120 204C117.791 204 116 205.791 116 208C116 210.209 117.791 212 120 212Z"/><path fill="#fff" d="M128 172C130.209 172 132 170.209 132 168C132 165.791 130.209 164 128 164C125.791 164 124 165.791 124 168C124 170.209 125.791 172 128 172Z"/><path fill="#fff" d="M144 68C146.209 68 148 66.2091 148 64C148 61.7909 146.209 60 144 60C141.791 60 140 61.7909 140 64C140 66.2091 141.791 68 144 68Z"/><path fill="#fff" d="M144 236C146.209 236 148 234.209 148 232C148 229.791 146.209 228 144 228C141.791 228 140 229.791 140 232C140 234.209 141.791 236 144 236Z"/><path fill="#fff" d="M152 60C154.209 60 156 58.2091 156 56C156 53.7909 154.209 52 152 52C149.791 52 148 53.7909 148 56C148 58.2091 149.791 60 152 60Z"/><path fill="#fff" d="M160 68C162.209 68 164 66.2091 164 64C164 61.7909 162.209 60 160 60C157.791 60 156 61.7909 156 64C156 66.2091 157.791 68 160 68Z"/><path fill="#fff" d="M160 244C162.209 244 164 242.209 164 240C164 237.791 162.209 236 160 236C157.791 236 156 237.791 156 240C156 242.209 157.791 244 160 244Z"/><path fill="#fff" d="M168 60C170.209 60 172 58.2091 172 56C172 53.7909 170.209 52 168 52C165.791 52 164 53.7909 164 56C164 58.2091 165.791 60 168 60Z"/><path fill="#fff" d="M168 124C170.209 124 172 122.209 172 120C172 117.791 170.209 116 168 116C165.791 116 164 117.791 164 120C164 122.209 165.791 124 168 124Z"/><path fill="#fff" d="M192 196C194.209 196 196 194.209 196 192C196 189.791 194.209 188 192 188C189.791 188 188 189.791 188 192C188 194.209 189.791 196 192 196Z"/><path fill="#fff" d="M200 148C202.209 148 204 146.209 204 144C204 141.791 202.209 140 200 140C197.791 140 196 141.791 196 144C196 146.209 197.791 148 200 148Z"/><path fill="#fff" d="M208 156C210.209 156 212 154.209 212 152C212 149.791 210.209 148 208 148C205.791 148 204 149.791 204 152C204 154.209 205.791 156 208 156Z"/><path fill="#fff" d="M224 124C226.209 124 228 122.209 228 120C228 117.791 226.209 116 224 116C221.791 116 220 117.791 220 120C220 122.209 221.791 124 224 124Z"/><path fill="#fff" d="M224 140C226.209 140 228 138.209 228 136C228 133.791 226.209 132 224 132C221.791 132 220 133.791 220 136C220 138.209 221.791 140 224 140Z"/></svg>