<svg width="257" height="239" fill="none" viewBox="0 0 257 239"><path fill="#fff" d="M26.0761 238.931H17.5428C13.0165 238.931 8.67558 237.133 5.47498 233.933C2.27439 230.732 0.476318 226.391 0.476318 221.865V42.6663C0.476318 38.14 2.27439 33.799 5.47498 30.5984C8.67558 27.3978 13.0165 25.5998 17.5428 25.5998H26.0761C30.6024 25.5998 34.9433 27.3978 38.1439 30.5984C41.3445 33.799 43.1426 38.14 43.1426 42.6663V221.865C43.1426 226.391 41.3445 230.732 38.1439 233.933C34.9433 237.133 30.6024 238.931 26.0761 238.931Z"/><path fill="#fff" d="M119.942 76.7993C119.942 72.273 118.144 67.9321 114.943 64.7315C111.743 61.5309 107.402 59.7328 102.875 59.7328H68.7424C64.216 59.7328 59.8751 61.5309 56.6745 64.7315C53.4739 67.9321 51.6759 72.273 51.6759 76.7993V91.7325C51.6759 92.2983 51.9006 92.8409 52.3007 93.241C52.7008 93.6411 53.2434 93.8658 53.8092 93.8658H117.809C118.374 93.8658 118.917 93.6411 119.317 93.241C119.717 92.8409 119.942 92.2983 119.942 91.7325V76.7993Z"/><path fill="#fff" d="M51.6759 221.865C51.6759 226.391 53.4739 230.732 56.6745 233.933C59.8751 237.133 64.216 238.931 68.7424 238.931H102.875C107.402 238.931 111.743 237.133 114.943 233.933C118.144 230.732 119.942 226.391 119.942 221.865V205.865C119.942 205.582 119.83 205.311 119.629 205.111C119.429 204.911 119.158 204.798 118.875 204.798H52.7425C52.4596 204.798 52.1883 204.911 51.9883 205.111C51.7882 205.311 51.6759 205.582 51.6759 205.865V221.865Z"/><path fill="#fff" d="M118.875 110.932H52.7425C52.1534 110.932 51.6759 111.41 51.6759 111.999V186.665C51.6759 187.254 52.1534 187.732 52.7425 187.732H118.875C119.464 187.732 119.942 187.254 119.942 186.665V111.999C119.942 111.41 119.464 110.932 118.875 110.932Z"/><path fill="#fff" d="M162.608 238.931H145.542C141.015 238.931 136.674 237.133 133.474 233.933C130.273 230.732 128.475 226.391 128.475 221.865V17.0665C128.475 12.5402 130.273 8.19926 133.474 4.99867C136.674 1.79807 141.015 0 145.542 0H162.608C167.135 0 171.475 1.79807 174.676 4.99867C177.877 8.19926 179.675 12.5402 179.675 17.0665V221.865C179.675 226.391 177.877 230.732 174.676 233.933C171.475 237.133 167.135 238.931 162.608 238.931Z"/><path fill="#fff" d="M256.415 220.505L239.226 39.173C238.437 30.8264 230.192 24.7731 220.81 25.6744L203.824 27.2744C194.443 28.1651 187.477 35.653 188.267 43.9996L205.456 225.331C206.245 233.678 214.49 239.731 223.872 238.83L240.858 237.23C250.239 236.339 257.205 228.851 256.415 220.505Z"/></svg>