<svg width="178" height="256" viewBox="0 0 178 256"><path fill="#fff" d="M75.9073 234.456H101.639V238.935H75.9073V234.456ZM87.5529 222.183H101.751V226.662H87.5305L87.5529 222.183ZM87.5529 209.911H101.751V214.39H87.5529V209.911ZM87.5529 197.616H101.774V202.095H87.5752L87.5529 197.616ZM75.9522 185.343H101.774V189.822H75.9522V185.343ZM87.5752 173.07H101.796V177.549H87.5976L87.5752 173.07ZM87.5752 160.775H101.774V165.255H87.5752V160.775ZM87.5752 148.503H101.774V152.982H87.5752V148.503ZM75.9745 136.23H101.796V140.709H75.9969L75.9745 136.23ZM87.5976 123.935H101.796V128.414H87.5976V123.935ZM87.5976 111.64H101.819V116.119H87.5976V111.64ZM87.5976 99.3677H101.819V103.847H87.5976V99.3677ZM75.9969 87.0727H101.819V91.5518H76.0193L75.9969 87.0727ZM63.5675 0C61.8332 0 60.1698 0.688987 58.9435 1.91536C57.7171 3.14174 57.0282 4.80508 57.0282 6.53944C57.0282 8.2738 57.7171 9.93707 58.9435 11.1634C60.1698 12.3898 61.8332 13.0788 63.5675 13.0788H66.6581V66.2227L0.435346 246.348C0.0401675 247.431 -0.0886544 248.594 0.0598596 249.737C0.208374 250.881 0.629912 251.972 1.2887 252.918C1.94749 253.865 2.82425 254.639 3.84507 255.175C4.86589 255.711 6.00077 255.994 7.15392 256H170.639C171.792 255.994 172.927 255.711 173.948 255.175C174.969 254.639 175.846 253.865 176.504 252.918C177.163 251.972 177.585 250.881 177.733 249.737C177.882 248.594 177.753 247.431 177.358 246.348L111.225 66.2227V13.0788H114.293C116.027 13.0788 117.69 12.3898 118.917 11.1634C120.143 9.93707 120.832 8.2738 120.832 6.53944C120.832 4.80508 120.143 3.14174 118.917 1.91536C117.69 0.688987 116.027 0 114.293 0H63.5675Z"/></svg>