<svg width="98" height="85" fill="none" viewBox="0 0 98 85"><path fill="#fff" d="M48.7887 7.66326L51.4666 3.03489C53.1195 0.142163 56.8057 -0.833102 59.6984 0.819887C62.5912 2.47288 63.5664 6.15904 61.9135 9.05177L36.1103 53.7155H54.7725C60.8225 53.7155 64.2111 60.8234 61.5829 65.7493H6.86893C3.52989 65.7493 0.852051 63.0714 0.852051 59.7324C0.852051 56.3934 3.52989 53.7155 6.86893 53.7155H22.2087L41.8462 19.6805L35.7136 9.03524C34.0606 6.14251 35.0359 2.48941 37.9286 0.803358C40.8213 -0.84963 44.4744 0.125632 46.1605 3.01836L48.7887 7.66326ZM25.5808 71.948L19.7953 81.9816C18.1423 84.8744 14.4561 85.8496 11.5634 84.1966C8.67069 82.5436 7.69542 78.8575 9.34841 75.9648L13.6462 68.5263C18.506 67.0221 22.4566 68.1792 25.5808 71.948ZM75.4018 53.7486H91.0556C94.3947 53.7486 97.0725 56.4264 97.0725 59.7655C97.0725 63.1045 94.3947 65.7823 91.0556 65.7823H82.3609L88.229 75.9648C89.882 78.8575 88.9068 82.5106 86.014 84.1966C83.1213 85.8496 79.4682 84.8744 77.7821 81.9816C67.8973 64.8401 60.4753 52.0129 55.5494 43.467C50.5078 34.7723 54.1113 26.0445 57.6653 23.0856C61.6159 29.8629 67.5171 40.0949 75.4018 53.7486Z"/></svg>