<svg width="257" height="230" fill="none" viewBox="0 0 257 230"><path fill="#fff" d="M246.398 144.539C219.659 144.539 197.906 128.527 197.906 108.845C197.906 103.144 193.27 98.5076 187.569 98.5076C181.865 98.5076 177.231 103.145 177.231 108.845C177.231 128.527 155.478 144.539 128.738 144.539C102.001 144.539 80.2455 128.527 80.2455 108.845C80.2455 103.144 75.6088 98.5076 69.9077 98.5076C64.2061 98.5076 59.5694 103.145 59.5694 108.845C59.5694 128.527 37.8185 144.539 11.0771 144.539C5.37551 144.539 0.738281 149.174 0.738281 154.878C0.738281 160.58 5.37551 165.215 11.0766 165.215C29.5969 165.215 46.8117 159.337 59.5689 149.03V209.274H55.1382C49.4372 209.274 44.8005 213.91 44.8005 219.612C44.8005 225.315 49.4372 229.951 55.1382 229.951H84.6766C90.3777 229.951 95.0144 225.315 95.0144 219.612C95.0144 213.91 90.3777 209.274 84.6766 209.274H80.246V149.03C93.0026 159.334 110.218 165.215 128.738 165.215C147.258 165.215 164.472 159.337 177.231 149.03V209.274H172.801C167.098 209.274 162.462 213.91 162.462 219.612C162.462 225.315 167.098 229.951 172.801 229.951H202.338C208.042 229.951 212.677 225.315 212.677 219.612C212.677 213.91 208.041 209.274 202.338 209.274H197.908V149.03C210.667 159.334 227.882 165.215 246.4 165.215C252.099 165.215 256.738 160.58 256.738 154.878C256.737 149.174 252.098 144.539 246.398 144.539ZM246.398 159.309C223.252 159.309 203.026 149.31 191.999 134.472V215.182H202.337C204.783 215.182 206.767 217.167 206.767 219.612C206.767 222.058 204.783 224.043 202.337 224.043H172.799C170.353 224.043 168.368 222.058 168.368 219.612C168.368 217.167 170.353 215.182 172.799 215.182H183.137V134.472C172.109 149.31 151.883 159.309 128.737 159.309C105.591 159.309 85.3662 149.31 74.3367 134.472V215.182H84.675C87.1235 215.182 89.105 217.167 89.105 219.612C89.105 222.058 87.1235 224.043 84.675 224.043H55.1382C52.6891 224.043 50.7082 222.058 50.7082 219.612C50.7082 217.167 52.6897 215.182 55.1382 215.182H65.4765V134.472C54.4503 149.31 34.2226 159.309 11.0766 159.309C8.62745 159.309 6.64596 157.324 6.64596 154.878C6.64596 152.431 8.62745 150.447 11.0766 150.447C41.0716 150.447 65.4765 131.787 65.4765 108.846C65.4765 106.4 67.458 104.416 69.9072 104.416C72.3563 104.416 74.3372 106.4 74.3372 108.846C74.3372 131.787 98.7422 150.447 128.737 150.447C158.731 150.447 183.138 131.787 183.138 108.846C183.138 106.4 185.122 104.416 187.568 104.416C190.014 104.416 191.998 106.4 191.998 108.846C191.998 131.787 216.405 150.447 246.398 150.447C248.844 150.447 250.828 152.431 250.828 154.878C250.83 157.324 248.847 159.309 246.398 159.309Z"/><path fill="#fff" d="M246.398 159.309C223.252 159.309 203.026 149.31 191.999 134.472V215.182H202.337C204.783 215.182 206.767 217.167 206.767 219.612C206.767 222.058 204.783 224.043 202.337 224.043H172.799C170.353 224.043 168.368 222.058 168.368 219.612C168.368 217.167 170.353 215.182 172.799 215.182H183.137V134.472C172.109 149.31 151.883 159.309 128.737 159.309C105.591 159.309 85.3662 149.31 74.3367 134.472V215.182H84.675C87.1235 215.182 89.105 217.167 89.105 219.612C89.105 222.058 87.1235 224.043 84.675 224.043H55.1382C52.6891 224.043 50.7082 222.058 50.7082 219.612C50.7082 217.167 52.6897 215.182 55.1382 215.182H65.4765V134.472C54.4503 149.31 34.2226 159.309 11.0766 159.309C8.62745 159.309 6.64596 157.324 6.64596 154.878C6.64596 152.431 8.62745 150.447 11.0766 150.447C41.0716 150.447 65.4765 131.787 65.4765 108.846C65.4765 106.4 67.458 104.416 69.9072 104.416C72.3563 104.416 74.3372 106.4 74.3372 108.846C74.3372 131.787 98.7422 150.447 128.737 150.447C158.731 150.447 183.138 131.787 183.138 108.846C183.138 106.4 185.122 104.416 187.568 104.416C190.014 104.416 191.998 106.4 191.998 108.846C191.998 131.787 216.405 150.447 246.398 150.447C248.844 150.447 250.828 152.431 250.828 154.878C250.83 157.324 248.847 159.309 246.398 159.309Z"/><path fill="#fff" fill-rule="evenodd" d="M96.2459 105.399H161.229C166.93 105.399 171.568 100.762 171.568 95.0612V10.3876C171.568 4.68655 166.93 0.0493164 161.229 0.0493164H96.2459C90.5449 0.0493164 85.9082 4.68655 85.9082 10.3876V95.0634C85.9082 100.762 90.5476 105.399 96.2459 105.399ZM106.584 84.7223H150.892V20.7259H106.584V84.7223Z" clip-rule="evenodd"/></svg>