<svg width="116" height="256" viewBox="0 0 116 256"><path fill="#fff" d="M42.6981 48.6917C30.8119 48.6917 24.4443 58.4554 22.5765 64.2287L0.268625 140.64C0.0104277 141.567 -0.0625987 142.535 0.053703 143.49C0.170005 144.446 0.473349 145.368 0.946428 146.206C1.41951 147.044 2.05301 147.78 2.81077 148.373C3.56854 148.966 4.43578 149.403 5.36277 149.661C6.0043 149.846 6.66895 149.939 7.33671 149.937C8.93115 149.935 10.4811 149.411 11.7497 148.445C13.0183 147.479 13.9359 146.124 14.3623 144.588L34.0594 77.3884H38.0074C38.0074 77.3884 38.0074 77.5583 38.0074 77.6432L13.1524 171.141C13.0366 171.471 13.0039 171.824 13.0572 172.169C13.1106 172.514 13.2485 172.841 13.4584 173.12C13.6684 173.4 13.944 173.623 14.2609 173.77C14.5778 173.917 14.9261 173.984 15.275 173.964H32.9981V245.026C32.9981 247.937 34.1543 250.728 36.2122 252.786C38.2702 254.844 41.0614 256 43.9717 256C46.8821 256 49.6732 254.844 51.7311 252.786C53.789 250.728 54.9452 247.937 54.9452 245.026V173.879H60.8883V244.942C60.8883 247.852 62.0445 250.643 64.1024 252.701C66.1603 254.759 68.9514 255.915 71.8618 255.915C74.7721 255.915 77.5633 254.759 79.6213 252.701C81.6792 250.643 82.8354 247.852 82.8354 244.942V173.879H100.07C100.419 173.899 100.767 173.832 101.084 173.685C101.401 173.538 101.677 173.315 101.887 173.035C102.097 172.756 102.235 172.429 102.288 172.084C102.342 171.739 102.309 171.386 102.193 171.056L77.3592 77.6644C77.3592 77.6644 77.3592 77.4946 77.3592 77.4097H81.0736L101.301 144.418C101.739 145.937 102.659 147.272 103.923 148.222C105.187 149.171 106.725 149.684 108.306 149.682C109.023 149.69 109.737 149.597 110.428 149.406C112.291 148.864 113.862 147.605 114.797 145.906C115.732 144.207 115.955 142.206 115.416 140.343L92.5565 64.3137V64.0165C90.625 58.3068 84.2362 48.6917 72.4774 48.6917H69.4422C69.2442 48.6802 69.0457 48.6802 68.8478 48.6917H42.6981ZM57.8743 0.000729888C52.7567 0.0321943 47.8084 1.83746 43.8728 5.1088C39.9371 8.38014 37.2578 12.9151 36.2914 17.9407C35.325 22.9664 36.1313 28.1716 38.573 32.6693C41.0147 37.1669 44.9405 40.6786 49.6815 42.6058C54.4224 44.5331 59.6852 44.7565 64.5724 43.2381C69.4597 41.7197 73.669 38.5534 76.4832 34.2789C79.2973 30.0043 80.5421 24.8862 80.0051 19.7967C79.4682 14.7073 77.1828 9.96151 73.5387 6.36834C71.4763 4.32676 69.0306 2.71316 66.3423 1.62036C63.654 0.527548 60.7762 -0.0229022 57.8743 0.000729888V0.000729888Z"/></svg>