<svg width="257" height="256" fill="none" viewBox="0 0 257 256"><path fill="#fff" d="M128.733 256C199.317 256 256.738 198.579 256.738 128C256.738 57.4218 199.317 0 128.733 0C58.1546 0 0.737793 57.4218 0.737793 128C0.737793 198.579 58.1546 256 128.733 256ZM17.9556 153.945C20.1847 155.554 22.6123 156.965 25.0117 158.341L25.7501 158.767C44.7566 169.628 68.9736 175.369 95.7894 175.369C104.365 175.369 113.177 174.782 121.956 173.632C128.994 172.71 136.339 171.21 144.417 169.028C145.18 168.824 146.008 168.63 146.869 168.432C149.245 167.878 151.933 167.248 153.679 166.183C153.788 166.165 153.755 165.918 153.41 165.184C152.349 163.13 151.199 161.076 150.045 159.013L149.562 158.157C145.335 150.641 140.688 143.77 135.761 137.735L134.701 136.401C132.902 134.09 131.038 131.71 128.813 130.498C127.933 130.016 125.548 130.588 123.631 131.137C122.708 131.407 121.827 131.649 121.08 131.786C118.193 132.311 115.311 132.903 112.429 133.499C107.298 134.56 101.984 135.653 96.6501 136.334C90.1428 137.153 84.3265 137.811 78.3489 137.555C66.5361 137.068 54.1225 133.883 39.2808 127.527C32.8112 124.692 26.5549 120.722 20.1516 115.387C19.7443 115.047 19.1815 114.436 18.552 113.736C18.017 113.139 16.9192 111.932 16.1576 111.36C17.6859 100.948 20.649 90.9997 24.8088 81.7001C24.0184 84.9468 23.2755 88.2172 22.6648 91.5109C22.4896 92.4152 22.2436 93.4134 21.9783 94.4597C21.2874 97.2946 20.4213 100.82 20.9608 103.059C21.9877 107.375 26.3653 110.447 30.2227 113.154C30.6677 113.447 30.9988 113.703 31.3586 113.987C31.8555 114.37 33.0151 115.255 33.5214 115.374C34.047 114.844 34.634 111.639 34.828 110.579C34.9413 109.955 35.0452 109.415 35.1452 109.036C36.9957 101.615 39.9534 93.5411 43.9291 85.0557C44.8283 83.1582 45.694 81.2601 46.5695 79.3577C50.2373 71.3924 54.0329 63.1529 58.8653 55.5C65.3963 45.0646 73.707 35.0172 85.7989 22.9203C85.9786 22.7357 86.1775 22.5748 86.3621 22.3947C92.3254 19.9953 98.5253 18.074 104.933 16.7061C103.599 17.8419 102.278 19.0015 100.972 20.1611C99.8646 21.1455 98.7713 22.12 97.6924 23.048C77.8436 40.0243 62.5 61.78 50.7912 89.561C47.8523 96.5181 44.5205 104.403 42.6462 112.449C42.471 113.191 42.1681 114.058 41.842 114.966C41.3589 116.32 40.6918 118.18 40.8482 119.103C40.9477 119.628 42.4997 120.461 45.4534 121.545C46.1156 121.786 46.717 122.008 47.1664 122.217C52.8693 124.773 59.3295 126.675 66.3762 127.882C67.0152 127.981 67.7254 128.142 68.4539 128.294C70.0253 128.644 71.6392 129.013 72.9122 128.843C73.215 128.663 73.5036 127.65 73.6412 127.162L73.8827 126.367C75.1838 122.52 76.4523 118.625 77.6832 114.753C78.7715 111.355 80.1251 108.042 81.4169 104.843C82.0652 103.244 82.7091 101.653 83.3288 100.049C87.9053 88.0514 92.0513 78.009 97.3801 68.0037C107.911 48.4389 122.09 32.0303 138.403 20.5491C141.087 18.6561 143.651 16.9951 146.141 15.5183C150.457 16.1854 154.684 17.1178 158.829 18.2586C152.066 20.8758 146.07 24.8559 141.153 28.4718C117.385 45.8643 103.646 70.8104 96.3105 88.6716C92.1695 98.7145 87.4841 110.092 84.0528 121.327C83.7593 122.326 83.3332 123.414 82.8932 124.526C82.183 126.32 81.4451 128.175 81.3644 129.722C81.8707 129.543 82.2449 129.543 82.6468 129.547C85.2926 129.547 88.0894 129.112 90.8011 128.686C91.9038 128.511 93.002 128.341 94.0715 128.203L95.5954 127.995C102.387 127.077 108.799 126.211 115.35 124.715C116.296 124.507 117.437 124.365 118.658 124.213C121.256 123.896 124.483 123.499 125.785 122.292C126.514 121.606 127.006 119.784 127.399 118.317C127.645 117.403 127.887 116.518 128.171 115.78L129.16 113.244C131.062 108.326 133.041 103.234 135.303 98.3314C141.895 83.9629 151.096 70.6688 162.629 58.8278C170.055 51.1986 179.426 44.6488 188.337 40.8533C191.404 39.5615 194.277 38.591 197.126 37.8907L197.746 37.7486C197.789 37.7392 197.845 37.7249 197.893 37.7155C203.34 41.899 208.418 46.5513 213.028 51.6341C210.889 50.134 208.792 48.7522 206.785 47.5501L206.156 47.167C204.665 46.2534 203.122 45.3071 201.712 45.3071C197.68 45.8609 193.747 47.4892 191.106 48.6676L190.505 48.9329C190.108 49.0982 189.365 49.4154 189.194 49.6287C189.422 49.9267 191.173 51.4792 191.916 52.1419C192.489 52.6482 192.999 53.1075 193.331 53.4718C198.092 58.6779 202.266 63.6944 206.095 68.8054L206.44 69.2692C212.853 77.7739 219.493 86.5672 224.954 95.99C230.056 104.731 234.698 115.247 238.75 127.244C240.132 131.324 241.112 135.588 241.893 139.956C241.031 148.153 239.28 156.08 236.767 163.666C236.564 160.463 236.247 157.098 235.778 153.364C234.875 146.038 233.715 138.253 231.453 130.95C225.461 111.409 214.614 94.3948 205.84 81.7541C199.635 72.8425 193.691 65.4311 187.675 59.1035C187.358 58.7674 186.956 58.3037 186.511 57.783C185.484 56.5903 183.09 53.793 181.925 53.793C180.623 54.1434 179.043 55.4638 177.646 56.6279C177.131 57.054 176.638 57.4658 176.17 57.8157C171.286 61.5732 166.861 65.9512 161.399 72.449C161.044 72.8564 160.571 73.3345 160.036 73.8734C159.156 74.7489 156.491 77.423 156.577 78.3693C156.771 79.3349 159.052 81.2611 160.273 82.2975C160.983 82.8939 161.626 83.4427 162.095 83.9114C167.439 89.2452 172.408 94.6829 176.866 100.079C190.013 116.16 204.353 135.602 211.031 157.926C215.352 172.37 217.77 185.02 218.414 196.606L218.471 197.832C216.223 200.714 213.842 203.482 211.329 206.133C211.372 202.668 210.908 198.991 210.463 195.561C210.316 194.424 210.174 193.322 210.056 192.276C207.643 170.595 201.622 151.47 192.162 135.436C188.319 128.886 183.823 122.615 179.914 117.253C173.122 107.934 165.612 99.4109 158.503 91.5971C156.492 89.3635 154.679 87.5268 152.951 85.9698C152.426 85.5061 151.972 85.1037 151.783 85.0423C151.873 85.0799 151.432 85.7995 151.243 86.1069L147.372 92.5716C143.86 98.4398 141.319 104.976 138.858 111.299L137.277 115.34C137.002 116.051 136.61 116.888 136.184 117.778C135.233 119.785 134.05 122.288 134.281 123.789C134.433 124.721 135.843 125.965 136.979 126.974C137.675 127.589 138.337 128.186 138.839 128.749C142.739 133.055 146.355 137.783 149.265 142.393C158.933 157.784 169.497 176.25 174.547 196.535C176.662 204.964 177.443 213.8 176.752 221.406C176.516 224.217 176.009 226.928 175.214 229.673C175.148 229.91 175.049 230.218 174.94 230.529C174.807 230.922 174.557 231.647 174.608 231.882C174.641 231.897 174.793 231.925 174.921 231.954C163.061 237.245 150.15 240.558 136.576 241.49C142.217 239.9 147.547 237.936 152.185 236.076C153.751 235.462 155.379 234.917 157.017 234.373C160.098 233.346 163.297 232.281 165.915 230.658C166.69 230.18 166.979 229.351 167.419 227.927C168.432 224.524 168.906 221.367 168.906 218.301L168.911 217.685C168.924 217.141 168.963 215.693 168.688 215.366C168.475 215.413 167.992 215.551 167.604 215.66L166.994 215.825C165.835 216.119 164.656 216.398 163.478 216.673L160.875 217.293C153.398 219.167 146.048 220.587 139.044 221.504C118.901 224.15 96.7852 223.568 75.6065 219.853C68.1099 218.543 61.5364 216.971 55.6062 215.106C50.8738 211.125 46.4769 206.762 42.4448 202.077C62.3976 210.667 85.9761 215.196 111.253 215.196C119.446 215.196 127.803 214.719 136.095 213.781C143.7 212.897 151.059 211.297 159.214 209.446C159.971 209.275 160.88 209.124 161.841 208.968C164.079 208.604 166.853 208.154 168.088 207.246C168.4 206.952 168.566 205.746 167.582 201.675C167.468 201.221 167.378 200.819 167.303 200.482C165.608 193.005 162.679 185.674 160.076 179.389C159.882 178.94 159.697 178.386 159.494 177.785C159.068 176.521 158.173 173.895 157.302 173.606C156.98 173.606 156.436 173.796 156.01 173.951C155.708 174.06 155.409 174.169 155.13 174.25L154.619 174.41C152.31 175.139 149.99 175.868 147.658 176.536C140.114 178.736 131.732 180.435 122.044 181.737C113.568 182.872 104.964 183.446 96.4689 183.446C78.7874 183.446 62.1189 181.022 46.9412 176.252C37.7881 173.374 29.1844 169.745 21.3087 165.494C19.9952 161.735 18.8781 157.878 17.9556 153.945Z"/></svg>