<svg width="250" height="257" fill="none" viewBox="0 0 250 257"><path fill="#fff" d="M239.826 200.569C214.549 200.569 196.08 186.564 187.843 167.834C171.234 130.062 134.808 104.98 93.8768 102.173V120.855C127.402 123.623 157.144 144.227 170.788 175.256C181.468 199.537 204.403 215.983 230.519 218.692V237.29C196.994 234.522 167.383 213.703 153.739 182.674C143.053 158.379 119.942 141.843 93.8768 139.14V158.155C100.475 159.076 106.9 160.917 112.624 164.017V246.863C112.624 251.976 116.791 256.122 121.931 256.122C127.071 256.122 131.239 251.977 131.239 246.863V180.502C137.939 189.949 138.123 197.036 149.854 212.45V246.863C149.854 251.976 154.021 256.122 159.162 256.122C164.303 256.122 168.47 251.977 168.47 246.863V231.573C188.02 247.312 211.98 256.122 239.828 256.122C244.968 256.122 249.136 251.977 249.136 246.863V209.827C249.134 204.714 244.967 200.569 239.826 200.569Z"/><path fill="#fff" d="M9.08026 65.2684H84.9104C86.4358 65.2684 87.8723 65.6493 89.1298 66.3213L50.7261 2.29925C48.9825 -0.607435 44.7683 -0.602529 43.0315 2.30821L4.82391 66.3411C6.09024 65.6568 7.53989 65.2684 9.08026 65.2684Z"/><path fill="#fff" fill-rule="evenodd" d="M92.6956 251.607C91.0751 254.304 88.1152 256.112 84.7303 256.122H9.08027C4.12821 256.122 0.11377 252.108 0.11377 247.156V74.2349L4.82391 66.3411C6.09024 65.6568 7.53989 65.2684 9.08026 65.2684H84.9104C86.4358 65.2684 87.8723 65.6493 89.1298 66.3213L93.8768 74.2349V247.156C93.8768 248.776 93.4472 250.295 92.6956 251.607ZM75.545 144.643V105.567C75.545 89.0971 62.1936 75.7458 45.7239 75.7458C29.2542 75.7458 15.9029 89.0971 15.9029 105.567V144.643H75.545Z" clip-rule="evenodd"/></svg>