<svg width="246" height="257" fill="none" viewBox="0 0 246 257"><path fill="#fff" fill-rule="evenodd" d="M212.749 256.379H237.685C242.172 256.379 245.81 252.741 245.81 248.254V238.144C245.81 236.952 245.352 235.806 244.53 234.943L141.598 126.785V81.1096H157.833C162.045 81.1096 164.081 75.9521 161.005 73.0751L84.8961 1.89912C83.1112 0.229912 80.338 0.229919 78.5531 1.89913L2.44443 73.0751C-0.631941 75.9521 1.40389 81.1096 5.61591 81.1096H21.8509V162.349V247.941C21.8509 252.749 25.7487 256.647 30.5569 256.647C35.3651 256.647 39.2629 252.749 39.2629 247.941V162.349H124.186V247.941C124.186 252.749 128.084 256.647 132.892 256.647C137.7 256.647 141.598 252.749 141.598 247.941V181.48L209.337 254.885C210.216 255.837 211.453 256.379 212.749 256.379ZM81.7247 146.898C97.752 146.898 110.745 133.905 110.745 117.878C110.745 101.851 97.752 88.8582 81.7247 88.8582C65.6974 88.8582 52.7047 101.851 52.7047 117.878C52.7047 133.905 65.6974 146.898 81.7247 146.898Z" clip-rule="evenodd"/></svg>