<svg width="801" height="801" fill="none" viewBox="0 0 801 801"><path fill="#fff" d="M400.01 293.438C378.895 293.438 358.253 299.7 340.696 311.431C323.14 323.162 309.456 339.836 301.375 359.344C293.295 378.852 291.18 400.318 295.3 421.028C299.419 441.738 309.587 460.761 324.518 475.692C339.449 490.623 358.472 500.791 379.182 504.91C399.892 509.03 421.358 506.915 440.866 498.835C460.374 490.754 477.048 477.07 488.779 459.514C500.51 441.957 506.772 421.315 506.772 400.2C506.772 371.885 495.524 344.73 475.502 324.708C455.48 304.686 428.325 293.438 400.01 293.438V293.438ZM459.41 474.252C457.43 475.796 455.45 477.242 453.47 478.628C437.727 489.335 419.128 495.06 400.089 495.06C381.05 495.06 362.451 489.335 346.708 478.628V478.628C344.728 477.242 342.748 475.777 340.768 474.252V366.302C340.768 349.809 349.619 340.958 366.33 340.958H433.828C450.421 340.958 459.37 349.888 459.37 366.382L459.41 474.252Z"/></svg>