<svg xmlns="http://www.w3.org/2000/svg" width="168" height="256" fill="none" viewBox="0 0 168 256">
  <path fill="#fff" d="M120.866 172.066c0 20.396-16.535 36.931-36.932 36.931-20.396 0-36.93-16.535-36.93-36.931 0-20.397 16.534-36.932 36.93-36.932 20.397 0 36.932 16.535 36.932 36.932z"/>
  <path fill="#fff" fill-rule="evenodd" d="M20.984 116.547V59.593c0-17.186 8.539-32.15 19.936-42.461C52.302 6.834 67.765 0 83.934 0c16.17 0 31.633 6.834 43.015 17.132 11.397 10.312 19.936 25.275 19.936 42.461v56.954c13.06 14.796 20.984 34.232 20.984 55.519 0 46.355-37.579 83.934-83.935 83.934C37.58 256 0 218.421 0 172.066c0-21.287 7.924-40.723 20.984-55.519zm31.895-56.954c0-6.315 3.212-13.175 9.44-18.81 6.245-5.65 14.284-8.888 21.615-8.888 7.332 0 15.37 3.238 21.616 8.888 6.228 5.635 9.44 12.495 9.44 18.81v34.47c-9.606-3.827-20.085-5.932-31.056-5.932-10.97 0-21.45 2.105-31.055 5.933v-34.47zm31.055 156.119c24.105 0 43.646-19.541 43.646-43.646s-19.541-43.646-43.646-43.646c-24.104 0-43.645 19.541-43.645 43.646s19.54 43.646 43.645 43.646z" clip-rule="evenodd"/>
</svg>
