<svg width="48" height="85" fill="none" viewBox="0 0 48 85"><path fill="#fff" d="M47.8619 42.6401C47.8619 41.3943 47.3994 40.3164 46.4745 39.4065L7.78858 1.58265C6.91278 0.714316 5.85952 0.280151 4.62878 0.280151C3.33765 0.280151 2.26645 0.703919 1.41518 1.55145C0.563849 2.39899 0.138184 3.45512 0.138184 4.71985C0.138184 5.90898 0.56855 6.97168 1.42928 7.90795L36.9724 42.6401L1.42928 77.3723C0.56855 78.3085 0.138184 79.3712 0.138184 80.5604C0.138184 81.8251 0.563849 82.8812 1.41518 83.7287C2.26645 84.5763 3.33765 85 4.62878 85C5.85952 85 6.91278 84.5659 7.78858 83.6976L46.4745 45.8736C46.92 45.4017 47.2625 44.9024 47.5023 44.3757C47.742 43.8491 47.8619 43.2706 47.8619 42.6401Z"/></svg>