<svg width="257" height="256" fill="none" viewBox="0 0 257 256"><path fill="#fff" d="M128.36 256C198.938 256 256.36 198.579 256.36 128C256.36 57.4217 198.943 0 128.36 0C57.7811 0 0.359375 57.4217 0.359375 128C0.359375 198.579 57.7811 256 128.36 256ZM14.5621 128C14.5621 126.174 14.6141 124.361 14.6992 122.553H122.907V101.521C91.6481 99.4673 72.509 81.9278 59.745 70.2283C53.0531 64.0854 45.6561 59.3242 40.1614 56.1914C42.7642 52.9967 45.5427 49.9489 48.4722 47.0571C54.1845 50.4646 61.2693 55.2495 67.8998 61.3356C79.9823 72.4005 96.3998 87.4363 122.903 89.4432V14.3403C124.711 14.2552 126.529 14.2032 128.355 14.2032C130.57 14.2032 132.766 14.2839 134.953 14.4067V89.4387C161.493 87.4273 177.888 72.3916 189.961 61.3311C196.269 55.548 202.919 50.962 208.693 47.4788C211.599 50.3751 214.33 53.4421 216.909 56.6363C211.438 59.7979 204.505 64.36 198.106 70.2283C185.347 81.9322 166.217 99.4717 134.949 101.521V122.553H242.016C242.102 124.361 242.153 126.174 242.153 128C242.153 130.22 242.073 132.421 241.95 134.607H134.957V155.63C166.207 157.684 185.346 175.224 198.115 186.918C204.248 192.545 210.969 197.013 216.302 200.141C213.69 203.322 210.897 206.346 207.959 209.223C202.407 205.825 196.037 201.377 189.965 195.816C177.897 184.746 161.503 169.706 134.957 167.709V241.595C132.775 241.718 130.579 241.803 128.359 241.803C126.533 241.803 124.715 241.751 122.907 241.666V167.717C96.3949 169.714 79.9818 184.755 67.9042 195.82C61.5054 201.673 54.7191 206.321 49.2101 209.653C46.2519 206.785 43.4363 203.775 40.8048 200.604C46.3138 197.434 53.3036 192.838 59.745 186.926C72.5184 175.223 91.6718 157.683 122.912 155.634V134.611H14.7655C14.6428 132.421 14.5621 130.22 14.5621 128Z"/></svg>