<svg xmlns="http://www.w3.org/2000/svg" width="256" height="255" fill="none" viewBox="0 0 256 255">
  <path fill="#fff" d="M117.161 214.935L81 123.064h13.5l28.855 71.742 5.677 13.419c.516 1.549 1.549 5.265-2.58 7.742-4.129 2.478-8.258 1.033-9.291-1.032zM71.226 123.064H94.5c6.951 0 6.906-11.871.468-11.871H71.226c-6.78 0-6.71 11.871 0 11.871z"/>
  <path fill="#fff" d="M87.742 129.774l-45.42 71.742h13.936L96 140.096h78.76l-4.576-11.355-82.442 1.033z"/>
  <path fill="#fff" d="M202.839 209.774c-2.581-6.71-41.807-103.742-41.807-103.742h-21.161c-6.194 0-6.194-10.839-.516-10.839h28.387c2.065 0 3.613 2.753 4.129 4.13 0 0 38.71 100.128 40.774 105.806 2.065 5.677-7.225 10.322-9.806 4.645z"/>
  <path fill="#fff" d="M123.355 211.322l57.806-55.34-4.529-11.241-59.987 56.775 6.71 9.806z"/>
  <path fill="#fff" d="M122.839 196.871c-6.194 0-73.29 2.581-78.452 2.581-5.677 2.065-4.52 11.253 1.032 11.871 0 0 64.516 4.129 77.42 5.161 13.419.516 12.387-20.129 0-19.613z"/>
  <path stroke="#fff" stroke-width="11" d="M250.5 205.129c0 24.042-19.49 43.532-43.532 43.532-24.042 0-43.533-19.49-43.533-43.532 0-24.042 19.491-43.532 43.533-43.532s43.532 19.49 43.532 43.532zm-157.935 0c0 24.042-19.49 43.532-43.533 43.532-24.042 0-43.532-19.49-43.532-43.532 0-24.042 19.49-43.532 43.532-43.532 24.043 0 43.532 19.49 43.532 43.532z"/>
  <g>
    <circle cx="124" cy="51.25" r="11" fill="#fff"/>
    <path fill="#fff" fill-rule="evenodd" d="M124 64.25c7.18 0 13-5.82 13-13s-5.82-13-13-13-13 5.82-13 13 5.82 13 13 13zm0 12c13.807 0 25-11.193 25-25s-11.193-25-25-25-25 11.193-25 25 11.193 25 25 25z" clip-rule="evenodd"/>
    <path fill="#fff" fill-rule="evenodd" d="M117.562 12.147c-1.855 1.679-2.812 3.722-2.812 5.603v18.5h-9.5v-18.5c0-5.119 2.543-9.576 5.938-12.647C114.578 2.036 119.184 0 124 0c4.816 0 9.422 2.036 12.812 5.103 3.395 3.071 5.938 7.528 5.938 12.647v19h-9.5v-19c0-1.881-.957-3.924-2.812-5.603-1.86-1.683-4.254-2.647-6.438-2.647s-4.578.964-6.438 2.647z" clip-rule="evenodd"/>
  </g>
</svg>
