<svg width="256" height="255" viewBox="0 0 256 255"><path fill="#fff" d="M124 62.25C130.075 62.25 135 57.3251 135 51.25C135 45.1749 130.075 40.25 124 40.25C117.925 40.25 113 45.1749 113 51.25C113 57.3251 117.925 62.25 124 62.25Z"/><path fill="#fff" fill-rule="evenodd" d="M105.25 34.7136V17.75C105.25 12.6311 107.793 8.17419 111.188 5.10271C114.578 2.03562 119.184 0 124 0C128.816 0 133.422 2.03562 136.812 5.10271C140.207 8.17419 142.75 12.6311 142.75 17.75V34.7136C146.64 39.1207 149 44.9097 149 51.25C149 65.0571 137.807 76.25 124 76.25C110.193 76.25 99 65.0571 99 51.25C99 44.9097 101.36 39.1207 105.25 34.7136ZM114.75 17.75C114.75 15.8689 115.707 13.8258 117.562 12.1473C119.422 10.4644 121.816 9.5 124 9.5C126.184 9.5 128.578 10.4644 130.438 12.1473C132.293 13.8258 133.25 15.8689 133.25 17.75V28.017C130.389 26.8769 127.268 26.25 124 26.25C120.732 26.25 117.611 26.8769 114.75 28.017V17.75ZM124 64.25C131.18 64.25 137 58.4297 137 51.25C137 44.0703 131.18 38.25 124 38.25C116.82 38.25 111 44.0703 111 51.25C111 58.4297 116.82 64.25 124 64.25Z" clip-rule="evenodd"/><path fill="#fff" fill-rule="evenodd" d="M161.032 106.032C161.032 106.032 172.634 134.732 183.634 161.994C168.329 170.291 157.935 186.496 157.935 205.129C157.935 232.209 179.888 254.161 206.968 254.161C234.048 254.161 256 232.209 256 205.129C256 178.049 234.048 156.097 206.968 156.097C202.632 156.097 198.428 156.659 194.424 157.716C183.553 129.539 171.871 99.3221 171.871 99.3221C171.355 97.9458 169.807 95.1931 167.742 95.1931H139.355C133.677 95.1931 133.677 106.032 139.871 106.032H161.032ZM168.935 205.129C168.935 191.121 176.509 178.882 187.784 172.282C195.358 191.065 201.84 207.178 202.839 209.774C205.42 215.451 214.71 210.806 212.645 205.129C211.856 202.958 205.708 186.975 198.415 168.062C201.164 167.43 204.027 167.097 206.968 167.097C227.972 167.097 245 184.124 245 205.129C245 226.133 227.972 243.161 206.968 243.161C185.963 243.161 168.935 226.133 168.935 205.129Z" clip-rule="evenodd"/><path fill="#fff" fill-rule="evenodd" d="M49.0323 156.097C55.9599 156.097 62.552 157.533 68.5268 160.125L85.2132 133.768L81 123.064L71.2259 123.064C64.5162 123.064 64.4453 111.193 71.2259 111.193C75.5534 111.193 82.2688 111.193 87.684 111.193L94.9676 111.193C101.406 111.193 101.451 123.064 94.5 123.064L97.1513 129.656L170.184 128.742L174.76 140.096H101.35L123.355 194.806L123.463 195.063L176.632 144.741L181.161 155.982L131.882 203.159C133.61 208.143 131.864 214.522 126.19 216.119C123.029 217.891 119.905 217.402 118.212 216.137C113.06 215.766 105.48 215.251 97.132 214.694C92.6827 237.195 72.8388 254.161 49.0323 254.161C21.9525 254.161 0 232.209 0 205.129C0 178.049 21.9525 156.097 49.0323 156.097ZM43.29 199.988L62.5483 169.568C58.3485 167.971 53.7925 167.097 49.0323 167.097C28.0276 167.097 11 184.124 11 205.129C11 226.133 28.0276 243.161 49.0323 243.161C66.997 243.161 82.0525 230.705 86.0341 213.959C65.8619 212.631 45.4193 211.323 45.4193 211.323C40.2567 210.749 38.894 202.766 43.29 199.988ZM57.8522 199.052L73.0188 175.613C79.8485 181.17 84.7125 189.05 86.4067 198.049L80.7095 198.251C72.4302 198.545 64.3252 198.832 57.8522 199.052ZM79.0223 166.335C88.7425 173.86 95.5575 184.957 97.499 197.658C102.115 197.497 106.445 197.349 110.19 197.225L90.8419 148.068L79.0223 166.335Z" clip-rule="evenodd"/></svg>