<svg width="256" height="256" viewBox="0 0 256 256"><path fill="#fff" d="M75.9742 164.59H138.78C153.097 164.59 165.648 161.638 176.435 155.734C187.319 149.731 195.801 141.416 201.881 130.788C207.96 120.062 211 107.613 211 93.4428V93.1476C211 78.8787 207.96 66.4304 201.881 55.8025C195.801 45.0762 187.319 36.7609 176.435 30.8565C165.648 24.9522 153.097 22 138.78 22H75.9742V52.9979H129.367C143.095 52.9979 153.685 56.4913 161.138 63.4782C168.688 70.465 172.463 80.404 172.463 93.2952V93.5904C172.463 106.383 168.688 116.322 161.138 123.407C153.685 130.394 143.095 133.888 129.367 133.888H75.9742V164.59ZM57 235H94.9484V22H57V235Z"/></svg>