<svg width="38" height="15" viewBox="0 0 38 15"><path fill="#fff" fill-rule="evenodd" d="M11.7898 14.2586C15.5397 14.2586 18.5796 11.2187 18.5796 7.46878C18.5796 3.71886 15.5397 0.678955 11.7898 0.678955C8.03991 0.678955 5 3.71886 5 7.46878C5 11.2187 8.03991 14.2586 11.7898 14.2586ZM11.7898 12.9007C14.7897 12.9007 17.2216 10.4687 17.2216 7.46882C17.2216 4.46888 14.7897 2.03696 11.7898 2.03696C8.78984 2.03696 6.35791 4.46888 6.35791 7.46882C6.35791 10.4687 8.78984 12.9007 11.7898 12.9007Z" clip-rule="evenodd"/><circle cx="11.722" cy="7.537" r="2.92" fill="#fff"/><path fill="#fff" fill-rule="evenodd" d="M26.3301 0.298304L32.8116 6.77983C33.2093 7.17757 33.2093 7.82243 32.8116 8.22017L26.3301 14.7017C25.9323 15.0994 25.2875 15.0994 24.8897 14.7017C24.492 14.304 24.492 13.6591 24.8897 13.2614L29.6326 8.51847L20.8882 8.51847C20.3257 8.51847 19.8698 8.06249 19.8698 7.5V7.5C19.8698 6.93751 20.3257 6.48153 20.8882 6.48153L29.6326 6.48153L24.8897 1.73864C24.492 1.3409 24.492 0.696043 24.8897 0.298304C25.2875 -0.0994347 25.9323 -0.0994347 26.3301 0.298304Z" clip-rule="evenodd"/></svg>