<svg width="256" height="256" fill="none" viewBox="0 0 256 256"><path fill="#fff" fill-rule="evenodd" d="M159.971 141.626C159.971 147.203 156.977 150.156 151.363 150.156H103.967C98.3058 150.156 95.3583 147.203 95.3583 141.626V114.159C95.3583 108.582 98.3058 105.629 103.967 105.629H110.798C112.857 105.629 113.512 105.254 114.775 103.942L116.834 101.739C118.19 100.286 119.594 99.5827 122.261 99.5827H132.975C135.642 99.5827 137.046 100.286 138.402 101.739L140.461 103.942C141.724 105.254 142.379 105.629 144.438 105.629H151.363C157.024 105.629 159.971 108.582 159.971 114.159L159.971 141.626ZM113.605 127.846C113.605 119.972 119.875 113.691 127.688 113.691C135.502 113.691 141.771 119.925 141.771 127.846C141.771 135.673 135.502 141.954 127.688 141.954C119.875 141.954 113.605 135.673 113.605 127.846ZM143.456 118.19C143.456 116.362 145.046 114.722 146.965 114.722C148.836 114.722 150.427 116.315 150.427 118.19C150.427 120.112 148.836 121.612 146.965 121.659C145.046 121.659 143.456 120.159 143.456 118.19Z" clip-rule="evenodd"/><path fill="#fff" d="M127.688 137.22C122.542 137.22 118.331 133.049 118.331 127.846C118.331 122.596 122.495 118.425 127.688 118.425C132.882 118.425 137.046 122.596 137.046 127.846C137.046 133.049 132.882 137.22 127.688 137.22Z"/><path stroke="#fff" stroke-linecap="round" stroke-opacity=".3" stroke-width="19" d="M128 243C105.381 243 84.2864 236.47 66.5 225.191M159.5 17.3675C149.489 14.5227 138.923 13 128 13C116.713 13 105.806 14.626 95.5 17.6566M189.5 30.8088C198.747 36.6726 207.101 43.8198 214.309 52M232.534 80C239.253 94.6084 243 110.867 243 128C243 145.525 239.08 162.135 232.068 177M213.866 204.5C199.543 220.566 180.778 232.586 159.5 238.632M41.6905 204C34.4551 195.789 28.3729 186.538 23.6972 176.5M14.2478 145C13.4258 139.453 13 133.776 13 128C13 122.571 13.3763 117.229 14.1041 112M23.4658 80C32.7001 59.9225 47.5486 42.9614 66 31.1276"/><path stroke="#fff" stroke-linecap="round" stroke-width="19" d="M159.5 17.3675C149.49 14.5227 138.923 13 128 13C116.713 13 105.806 14.626 95.5001 17.6566M232.534 80C239.253 94.6084 243 110.867 243 128C243 145.525 239.08 162.135 232.069 177M41.6906 204C34.4552 195.789 28.373 186.538 23.6972 176.5M23.4658 80C32.7002 59.9225 47.5486 42.9614 66.0001 31.1276"/><path stroke="#fff" stroke-linecap="round" stroke-opacity=".3" stroke-width="19" d="M92.2191 67.3298C82.4431 72.974 74.4432 80.4896 68.4313 89.1282M124.653 57.5067C148.216 56.0537 171.471 66.086 185.856 85.4372M198.694 116.131C200.497 127.926 199.195 139.962 195.111 151.108M176.467 179.252C172.382 183.081 167.789 186.512 162.719 189.439C157.958 192.188 153.023 194.35 148.001 195.948M112.318 198.143C92.8471 194.469 75.2001 182.852 64.6823 164.635C56.8916 151.141 54.1929 136.07 55.9807 121.563"/><path stroke="#fff" stroke-linecap="round" stroke-width="19" d="M124.653 57.5067C148.216 56.0537 171.471 66.0859 185.856 85.4372M176.467 179.252C172.382 183.081 167.789 186.512 162.719 189.439C157.958 192.188 153.023 194.35 148.001 195.948M112.318 198.143C92.8471 194.469 75.2001 182.852 64.6822 164.635C56.8915 151.141 54.1929 136.07 55.9806 121.563"/></svg>