<svg width="257" height="256" fill="none" viewBox="0 0 257 256"><path fill="#fff" d="M230.829 72.9878C229.924 74.7368 228.812 76.383 227.392 77.8029C217.556 87.6388 198.726 84.758 185.349 71.3827C171.973 58.0075 169.092 39.1792 178.929 29.3433C180.349 27.9234 181.975 26.7917 183.724 25.9069L157.794 0L119.559 38.2532L129.128 47.8217L123.18 53.7686L113.611 44.2001L0.737915 157.064L25.9677 182.313C35.8251 172.456 54.6342 175.316 68.0106 188.712C81.3869 202.108 84.2679 220.895 74.4312 230.752L99.661 256L256.738 98.9152L230.829 72.9878ZM152.547 83.0912L137.874 68.4196L143.801 62.4728L158.473 77.1444L152.547 83.0912ZM181.892 112.435L167.219 97.7629L173.146 91.8366L187.84 106.508L181.892 112.435ZM211.258 141.798L196.565 127.127L202.512 121.2L217.185 135.872L211.258 141.798Z"/></svg>