<svg width="256" height="141" viewBox="0 0 256 141"><path fill="#fff" d="M190.44 69.358L128 89.9969L65.5988 69.3751C57.6176 79.4052 52.5211 91.5786 49.6406 104.596C81.8742 108.034 109.513 117.4 127.378 130.237C145.48 117.233 173.599 107.781 206.377 104.459C203.492 91.4886 198.4 79.3581 190.44 69.358ZM128.219 36.3185C133.015 36.3185 136.898 37.7502 136.898 39.5205C136.898 41.2864 133.015 42.7224 128.219 42.7224C123.422 42.7224 119.517 41.2907 119.517 39.5205C119.522 37.7502 123.422 36.3185 128.219 36.3185ZM128 0L0 42.298L128 84.6175L222.159 53.4769V68.1749C220.513 69.2379 219.441 71.0897 219.441 73.1943C219.441 74.7288 220.011 76.1176 220.963 77.1763C219.257 77.905 218.061 79.6024 218.061 81.5742V138.193C219.887 139.385 222.489 140.135 225.399 140.135C228.314 140.135 230.916 139.385 232.738 138.193V81.4584C232.738 79.5124 231.559 77.8407 229.879 77.1206C230.805 76.0704 231.379 74.7117 231.379 73.1986C231.379 71.0939 230.282 69.2422 228.64 68.1792V51.338L256 42.298L128 0Z"/></svg>