<svg width="257" height="171" fill="none" viewBox="0 0 257 171"><path fill="#fff" d="M179.674 0.996582H78.208C35.5331 0.996582 0.941406 35.5882 0.941406 78.2642V93.3301C0.941406 136.006 35.5331 170.597 78.208 170.597H179.674C222.35 170.597 256.941 136.006 256.941 93.3301V78.2642C256.941 35.5882 222.35 0.996582 179.674 0.996582ZM170.908 155.838H86.9913C48.3657 155.838 16.9412 124.422 16.9412 85.7961C16.9412 47.1716 48.3657 15.7466 86.9913 15.7466H170.908C209.533 15.7466 240.95 47.1716 240.95 85.7961C240.95 124.422 209.533 155.838 170.908 155.838Z"/><path fill="#fff" d="M170.908 49.8798H86.9913C67.1827 49.8798 51.0739 65.988 51.0739 85.7961C51.0739 105.596 67.1827 121.705 86.9913 121.705H170.908C190.708 121.705 206.817 105.596 206.817 85.7961C206.817 65.988 190.708 49.8798 170.908 49.8798Z"/></svg>