<svg width="256" height="162" viewBox="0 0 256 162"><path fill="#fff" d="M219.706 34.7791H224.602C235.712 34.7791 243.112 38.5995 243.112 57.1966C243.112 74.9374 234.329 101.351 209.891 101.351H207.059C206.115 101.348 205.185 101.127 204.34 100.706C203.495 100.284 202.758 99.6745 202.187 98.9229C201.616 98.1712 201.226 97.2982 201.046 96.3714C200.867 95.4445 200.903 94.4889 201.153 93.5784C205.361 77.1491 208.297 60.42 209.935 43.5397C210.191 41.129 211.331 38.8989 213.136 37.2806C214.941 35.6623 217.282 34.771 219.706 34.7791V34.7791ZM43.2859 5.1258e-05C42.3782 -0.00348868 41.4791 0.17636 40.6425 0.528794C39.806 0.881227 39.0493 1.39899 38.4177 2.05103C37.7862 2.70307 37.2929 3.47597 36.9673 4.32333C36.6418 5.17069 36.4908 6.07503 36.5234 6.98219C37.3357 30.3438 41.8587 105.786 65.9669 131.936H2.2932C0.295159 131.936 -0.53913 133.363 0.361085 135.142C4.75237 143.793 29.2557 161.665 56.0426 161.665H199.901C226.688 161.665 251.279 143.793 255.583 135.142C256.483 133.342 255.583 131.936 253.651 131.936H183.149C186.514 128.158 189.364 123.949 191.624 119.421C192.381 117.931 193.533 116.678 194.954 115.799C196.375 114.92 198.011 114.449 199.682 114.437H209.891C240.235 114.437 256 85.6741 256 57.3503C256 34.1862 245.022 21.9345 224.493 21.9345H216.742C216.105 21.9355 215.474 21.8065 214.889 21.5551C214.304 21.3038 213.776 20.9356 213.338 20.473C212.9 20.0104 212.561 19.4632 212.343 18.8651C212.124 18.2669 212.029 17.6303 212.065 16.9943C212.285 13.0861 212.394 9.72674 212.504 7.04805C212.537 6.14275 212.386 5.24018 212.062 4.39429C211.738 3.5484 211.247 2.77654 210.617 2.1248C209.988 1.47307 209.234 0.954844 208.4 0.601093C207.566 0.247342 206.67 0.0653362 205.764 0.0659179L43.2859 5.1258e-05Z"/></svg>