<svg width="257" height="257" fill="none" viewBox="0 0 257 257"><path fill="#fff" fill-rule="evenodd" d="M75.5424 42.4489C78.5256 39.4658 83.3622 39.4658 86.3453 42.4489L134.958 91.0618C137.941 94.045 137.941 98.8816 134.958 101.865C131.975 104.848 127.139 104.848 124.155 101.865L88.5827 66.292V209.577C88.5827 213.795 85.1627 217.215 80.9439 217.215V217.215C76.7251 217.215 73.3051 213.795 73.3051 209.577V66.292L37.7324 101.865C34.7492 104.848 29.9126 104.848 26.9295 101.865C23.9464 98.8816 23.9464 94.045 26.9295 91.0618L75.5424 42.4489Z" clip-rule="evenodd"/><path fill="#fff" fill-rule="evenodd" d="M182.038 214.978C179.055 217.961 174.218 217.961 171.235 214.978L122.622 166.365C119.639 163.382 119.639 158.545 122.622 155.562C125.605 152.579 130.442 152.579 133.425 155.562L168.997 191.135L168.997 47.8502C168.997 43.6315 172.417 40.2115 176.636 40.2115V40.2115C180.855 40.2115 184.275 43.6315 184.275 47.8503L184.275 191.135L219.848 155.562C222.831 152.579 227.667 152.579 230.651 155.562C233.634 158.545 233.634 163.382 230.651 166.365L182.038 214.978Z" clip-rule="evenodd"/></svg>