<svg width="801" height="801" fill="none" viewBox="0 0 801 801"><path fill="#fff" d="M447.471 482.37V366.302C447.471 356.284 443.887 352.739 433.809 352.739H429.71V352.997C429.776 353.754 429.679 354.517 429.426 355.233C429.172 355.95 428.769 356.604 428.242 357.152C427.715 357.699 427.076 358.128 426.37 358.408C425.664 358.689 424.905 358.815 424.146 358.778H376.012C375.255 358.812 374.499 358.684 373.795 358.402C373.091 358.12 372.455 357.691 371.93 357.144C371.405 356.597 371.003 355.943 370.751 355.228C370.499 354.513 370.403 353.752 370.468 352.997V352.838H366.35C356.173 352.838 352.49 356.383 352.49 366.401V482.37C366.924 490.689 383.291 495.069 399.951 495.069C416.61 495.069 432.977 490.689 447.411 482.37V482.37H447.471Z"/></svg>