<svg width="124" height="256" viewBox="0 0 124 256"><path fill="#fff" d="M47.0181 1.11415L35.9909 16.8626L40.2706 19.8592L51.2978 4.11078C52.1252 2.92899 51.838 1.30016 50.6563 0.472636C49.4744 -0.354852 47.8456 -0.0676492 47.0181 1.11415Z"/><path fill="#fff" d="M35.4313 20.5839C35.7078 20.1907 36.2505 20.0955 36.6443 20.3713C37.0386 20.6474 37.1344 21.1909 36.8583 21.5852L31.6619 29.0064C31.4569 29.2992 31.3469 29.6479 31.3469 30.0053V40.1897H29.6054V29.421C29.6054 29.0624 29.7161 28.7126 29.9223 28.4194L35.4313 20.5839Z"/><path fill="#fff" d="M76.7341 1.24949L87.7613 16.9979L83.4817 19.9945L72.4544 4.24613C71.627 3.06433 71.9142 1.43547 73.096 0.607982C74.2778 -0.219506 75.9066 0.0676966 76.7341 1.24949Z"/><path fill="#fff" d="M88.3209 20.7193C88.0444 20.326 87.5017 20.2309 87.1079 20.5066C86.7137 20.7827 86.6178 21.3262 86.8939 21.7205L92.0903 29.1418C92.2953 29.4345 92.4053 29.7832 92.4053 30.1406V40.3251H94.1468V29.5563C94.1468 29.1978 94.0361 28.848 93.8299 28.5547L88.3209 20.7193Z"/><path fill="#fff" d="M123.646 45.8594H0V80.1088H123.646V45.8594Z"/><path fill="#fff" d="M21.3784 216.765L14.6251 226.015C14.3451 226.399 14.6191 226.938 15.094 226.938H107.43C107.905 226.938 108.179 226.399 107.899 226.015L101.146 216.765C100.815 216.312 100.096 216.546 100.096 217.108V222.379C100.096 223.02 99.5767 223.54 98.9355 223.54H23.5888C22.9476 223.54 22.4278 223.02 22.4278 222.379V217.108C22.4278 216.546 21.7096 216.312 21.3784 216.765Z"/><path fill="#fff" d="M27.8639 96.3628H96.3628V219.429H27.8639V96.3628Z"/><path fill="#fff" d="M110.295 229.878H13.3515V256H110.295V229.878Z"/><path fill="#fff" d="M0.580499 84.1723L10.7813 104.122C11.0789 104.704 11.6778 105.07 12.3318 105.07H22.2409V94.3311C22.2409 93.3693 23.0206 92.5896 23.9824 92.5896H98.5028C99.4647 92.5896 100.244 93.3693 100.244 94.3311V105.07H110.153C110.807 105.07 111.406 104.704 111.704 104.122L121.905 84.1723H0.580499Z"/></svg>