<svg width="801" height="801" fill="none" viewBox="0 0 801 801"><path stroke="#fff" stroke-linecap="round" stroke-miterlimit="10" stroke-width="23.5" d="M476.79 240.496C471.049 237.737 465.165 235.288 459.161 233.162M577.195 397.744C576.802 369.414 569.622 341.59 556.256 316.608M532.606 517.754C536.831 512.988 540.796 507.998 544.484 502.805M250.658 495.564C263.304 515.371 279.765 532.464 299.08 545.849C318.396 559.234 340.181 568.643 363.168 573.529C386.154 578.415 409.883 578.68 432.973 574.309C456.063 569.937 478.053 561.017 497.662 548.066M225.391 370.057C220.571 397.977 222.517 426.646 231.065 453.659M248.072 309.012C244.794 314.473 241.814 320.107 239.143 325.889M562.181 245.532C558.174 241.331 554.005 237.288 549.685 233.41M623.737 413.151C625.255 386.916 622.148 360.619 614.556 335.46M611.946 473.032C613.833 467.541 615.505 461.98 616.96 456.36M543.25 572.547C547.715 568.837 552.034 564.954 556.197 560.908M371.821 622.521C377.581 623.252 383.366 623.758 389.165 624.039M260.411 575.509C264.952 579.126 269.632 582.564 274.441 585.817M176.604 417.834C180.302 464.688 198.638 509.194 229.018 545.056M281.572 209.953C259.263 223.842 239.571 241.546 223.395 262.256M583.765 201.013C579.308 196.901 574.713 192.94 569.99 189.136M459.553 664.579C486.82 658.438 512.972 648.116 537.083 633.979M329.87 661.967C356.867 669.201 384.821 672.214 412.74 670.902M173.926 549.624C177.27 554.683 180.782 559.629 184.458 564.452M131.697 362.124C130.845 368.128 130.195 374.159 129.748 380.207M340.467 135.821C313.2 141.962 287.048 152.284 262.937 166.421M405.467 129.254C399.404 129.132 393.338 129.214 387.28 129.498M583.321 140.473C577.255 136.192 571.041 132.125 564.691 128.279M703.122 304.368C700.884 297.29 698.399 290.291 695.671 283.387M715.346 440.499C719.204 410.31 718.707 379.724 713.87 349.676M669.28 569.18C685.457 543.402 697.849 515.433 706.076 486.132M512.111 697.679C562.291 678.77 606.872 647.474 641.706 606.703M445.541 714.823C452.889 713.76 460.197 712.439 467.452 710.864M245.855 678.223C252.348 681.823 258.965 685.195 265.694 688.332M189.693 638.585C195.26 643.496 200.997 648.212 206.895 652.721M88.3135 462.698C94.2968 492.538 104.534 521.365 118.712 548.295M90.8798 326.043C83.7804 355.638 80.9675 386.099 82.5274 416.494M114.049 261.323C110.805 268.002 107.797 274.791 105.029 281.68M198.791 154.087C175.229 173.351 154.556 195.898 137.404 221.039M320.729 92.3442C313.539 94.1957 306.417 96.2985 299.375 98.6487M457.322 87.5084C450.019 86.17 442.672 85.0877 435.294 84.2637M523.201 107.139C516.357 104.262 509.415 101.626 502.386 99.2352M567.942 76.3515C560.577 72.532 553.083 68.9649 545.474 65.6564M676.275 161.964C655.709 138.114 632.14 117.028 606.158 99.2312M761.219 349.143C760.058 340.928 758.617 332.754 756.898 324.637M764.355 418.425C764.769 410.138 764.901 401.84 764.749 393.544M754.321 487.048C756.296 478.99 757.996 470.866 759.418 462.692M731.482 552.533C734.947 544.994 738.153 537.338 741.096 529.581M147.642 663.618C170.382 685.405 195.848 704.155 223.405 719.401M45.2894 485.361C52.6413 515.984 63.9276 545.525 78.8667 573.249M39.0477 347.424C34.4916 378.586 33.9899 410.206 37.555 441.496M55.5586 280.065C52.8263 287.9 50.3619 295.825 48.17 303.827M175.189 112.912C132.007 146.704 96.9989 189.796 72.7669 238.983M503.619 50.4225C428.425 28.1491 348.055 30.7004 274.426 57.698"/></svg>