<svg width="252" height="256" fill="none" viewBox="0 0 252 256"><path fill="#fff" d="M94.777 59.8934C95.9211 62.4531 96.9748 65.0671 98.0286 67.6679L99.114 70.3453C99.2497 70.6802 99.3765 71.0462 99.5028 71.4355C99.6929 72.0096 100.095 73.2129 100.399 73.4616C101.181 73.4796 101.633 73.4162 102.058 73.3486C102.42 73.2942 102.759 73.2445 103.062 73.2218C106.246 73.0227 109.439 72.9187 112.6 72.9187H116.824C123.979 72.9187 130.993 72.9636 138.107 73.5108L139.831 73.6466C142.224 73.832 144.643 74.0216 147.026 74.3427C147.547 74.4109 148.121 74.5466 148.7 74.6908C149.324 74.8493 149.966 75.0072 150.432 75.0072L150.618 74.9983C150.45 74.9845 150.654 74.5414 150.78 74.2746C151.143 73.4966 151.445 72.8728 151.748 72.2532C152.309 71.1134 152.87 69.9783 153.345 68.7708L154.127 66.7901C156.398 61.0328 158.745 55.0811 160.816 49.1247C161.006 48.5774 161.3 47.8992 161.63 47.1619C162.096 46.1124 163.191 43.6525 162.983 42.9332C162.544 41.4405 159.016 39.4778 157.121 38.4197C156.569 38.1123 156.072 37.8361 155.656 37.5831C148.669 33.2413 141.106 30.5412 134.625 28.4744C134.019 28.2753 133.409 28.0625 132.794 27.8454C130.351 26.9955 127.855 26.0997 125.549 26.3078C113.726 27.3932 102.243 30.799 94.0481 35.6515C91.9993 36.85 90.0048 38.0352 88.0511 39.4461C87.5715 39.7809 86.6852 40.4005 86.5943 40.7079C86.4723 41.3232 87.3676 43.1957 87.7474 43.9959C87.974 44.4618 88.1773 44.8959 88.331 45.271C89.6969 48.6134 91.1981 51.9463 92.6997 55.275L94.777 59.8934Z"/><path fill="#fff" d="M79.9384 137.991C83.7467 145.634 87.921 152.617 92.7012 159.343L94.0354 161.233C95.6274 163.512 97.269 165.869 99.1372 167.687C100.105 168.65 101.096 169.627 101.941 169.993C103.506 170.644 105.844 170.704 108.11 170.757C109.453 170.793 110.756 170.835 111.909 170.979C119.037 171.825 126.155 172.254 133.066 172.254C138.456 172.254 143.703 171.988 148.651 171.467C151.423 171.186 153.038 168.496 154.747 165.647C155.096 165.067 155.444 164.488 155.797 163.937L156.796 162.377C162.029 154.19 166.972 146.462 171.192 137.982C172.409 135.594 173.476 133.111 174.648 130.356L174.874 129.85C175.181 129.158 175.534 128.376 175.412 128.009C174.24 124.328 171.817 120.664 169.47 117.123C168.769 116.065 168.086 115.034 167.448 114.021C165.386 110.782 163.418 107.467 161.455 104.161C159.814 101.389 158.172 98.6163 156.467 95.8803C155.798 94.8081 155.101 93.7364 154.409 92.6646C153.523 91.285 152.636 89.9106 151.791 88.5357L151.564 88.1512C150.931 87.0752 150.144 85.7363 149.357 85.3111C148.941 85.094 148.168 85.0037 147.421 84.9176C147.023 84.8722 146.634 84.8225 146.273 84.7592C143.509 84.2933 140.642 83.9722 137.521 83.7688L133.84 83.502C128.268 83.0995 122.511 82.6838 116.871 82.6838C113.841 82.6838 111.114 82.8016 108.527 83.0456C107.762 83.109 106.862 83.1137 105.89 83.1227C103.855 83.1275 101.064 83.1407 99.988 83.9234C98.6808 84.8779 97.4733 87.1116 96.4058 89.0839C95.818 90.174 95.248 91.2183 94.6739 92.0777C91.2591 97.2017 88.0165 102.58 84.887 107.776C83.3626 110.304 81.8388 112.832 80.2827 115.347C79.4418 116.686 78.7177 118.074 77.9898 119.462C77.4067 120.575 76.8183 121.692 76.1855 122.773L75.8284 123.356C75.3895 124.066 74.7884 125.043 74.8333 125.577C75.032 128.575 77.0855 132.492 78.7362 135.635C79.1604 136.462 79.5766 137.254 79.9384 137.991Z"/><path fill="#fff" d="M87.4007 180.043C88.7123 178.469 90.0285 176.895 91.2856 175.28L91.5708 174.91C91.6432 174.814 91.7425 174.692 91.8286 174.579C91.6522 174.385 91.3674 174.109 91.173 173.928C90.8789 173.652 90.5941 173.376 90.3586 173.109C88.8707 171.454 87.4778 169.631 86.2883 168.057C82.0322 162.64 78.2424 156.914 74.733 150.582C71.7435 145.264 69.1564 139.936 67.0579 134.753C66.9132 134.405 66.7637 133.943 66.6053 133.437C66.4109 132.822 66.0084 131.533 65.6825 131.266L60.2781 131.749C53.1005 132.256 45.6788 132.785 38.4742 133.998L31.4461 135.219C31.1926 135.25 30.7769 135.308 30.6459 135.367C30.6142 135.522 30.5465 136.598 30.5101 137.172C30.4832 137.611 30.4557 138.027 30.4061 138.389C30.1393 140.369 29.9719 142.346 29.8045 144.313C29.6645 145.937 29.5287 147.556 29.3386 149.179C28.6921 154.914 29.3069 160.621 30.1166 166.958C30.6686 171.395 31.4324 175.949 33.3006 179.26C34.77 181.874 37.5927 184.488 39.8676 186.591C44.2632 190.576 49.374 195.016 55.1994 197.933C56.1174 198.399 57.0132 198.87 57.9085 199.349C60.3372 200.638 62.6301 201.854 65.1088 202.718C65.4527 202.832 65.8325 202.999 66.2307 203.162C66.8049 203.407 67.5195 203.713 67.8903 203.713V205.785L67.9083 203.713C68.7317 203.614 70.5857 200.982 71.2871 199.987C71.7165 199.386 72.101 198.842 72.4269 198.44L76.1037 193.885C79.7308 189.385 83.3759 184.863 87.0753 180.431L87.4007 180.043Z"/><path fill="#fff" d="M204.696 135.666C200.386 135.11 195.931 134.531 191.571 134.178C190.856 134.125 190.051 133.998 189.205 133.872C188.016 133.686 186.786 133.496 185.732 133.496C185.198 133.496 184.764 133.545 184.434 133.645C184.529 133.654 184.344 134.178 184.23 134.485C184.144 134.743 184.054 134.988 183.959 135.21C183.077 137.299 182.096 139.356 181.114 141.414L180.35 143.015C176.99 150.207 172.648 156.977 168.451 163.531L165.738 167.786C164.471 169.848 163.073 172.073 161.541 174.181C161.373 174.416 161.151 174.678 160.916 174.95C160.69 175.212 160.31 175.655 160.242 175.845C160.319 176.14 161.228 177.216 161.667 177.736C161.988 178.116 162.287 178.478 162.518 178.794C164.15 181.078 165.833 183.308 167.515 185.542L172.336 192.005C174.756 195.284 177.257 198.68 179.961 201.719L180.589 202.456C182.023 204.157 182.462 204.56 183.57 204.275C194.171 201.404 204.266 194.886 210.869 189.925L212.361 188.826C214.763 187.08 217.752 184.909 218.784 182.738C219.864 180.427 220.321 177.189 220.728 174.326L220.932 172.901C222.293 164.231 222.46 156.082 221.438 147.977L221.194 145.992C220.972 144.155 220.75 142.302 220.438 140.479L220.361 139.927C220.267 139.244 220.14 138.304 219.864 137.946C219.204 137.177 215.237 136.861 213.745 136.742C213.134 136.693 212.582 136.648 212.143 136.598C209.666 136.312 207.183 135.992 204.696 135.666Z"/><path fill="#fff" d="M173.72 210.041L173.376 209.648C171.861 207.983 170.45 206.414 169.093 204.641C166.406 201.24 163.774 197.744 161.142 194.239C159.464 192.01 157.791 189.78 156.099 187.573C155.557 186.863 155.032 186.004 154.494 185.112C153.598 183.633 152.58 181.96 151.54 181.336C151.517 181.336 150.649 181.318 150.034 181.39C149.704 181.422 149.392 181.453 149.107 181.467C147.297 181.526 145.525 181.644 143.747 181.756C142.422 181.842 141.097 181.928 139.772 181.992C131.156 182.326 122.559 182.023 111.732 181.137L110.194 181.019C108.1 180.861 105.97 180.698 103.894 180.4L103.247 180.291C102.623 180.183 101.899 180.043 101.235 180.043C100.819 180.043 100.656 180.11 100.642 180.119C99.7922 180.467 98.6973 182.028 97.9737 183.059L97.3224 183.972C96.0019 185.673 94.645 187.306 93.2881 188.938C91.9402 190.558 90.5927 192.181 89.3082 193.841C87.8973 195.686 86.373 197.459 84.8487 199.232C82.963 201.425 81.0135 203.691 79.3491 206.061C79.0776 206.446 78.6979 206.898 78.2816 207.382C77.8068 207.933 76.8207 209.078 76.7483 209.535C76.7119 210.218 78.0102 211.981 78.5664 212.728L79.0502 213.393C82.0852 217.716 84.7579 221.257 87.9375 224.509L88.6659 225.251C91.6692 228.331 94.776 231.506 98.3672 233.415C100.556 234.594 103.116 235.152 105.825 235.744C106.947 235.988 108.064 236.232 109.14 236.517C115.359 238.113 121.998 238.887 129.424 238.887C131.496 238.887 133.572 238.824 135.661 238.72C140.283 238.461 146.208 237.896 150.993 235.834C152.463 235.196 153.96 233.804 155.403 232.456L156.402 231.538C161.15 227.381 165.072 222.619 169.214 217.576L169.68 217.011C171.123 215.296 172.412 213.605 173.524 211.959L173.954 211.393C174.112 211.19 174.384 210.846 174.438 210.706C174.367 210.764 173.946 210.294 173.72 210.041Z"/><path fill="#fff" d="M126.051 0C59.7493 0 5.35494 53.0554 1.22602 119.845C0.606446 125.359 0.574758 130.383 1.14467 135.06V135.064C4.74482 202.37 59.3875 256 126.047 256C195.031 256 251.152 198.576 251.152 127.995C251.157 57.4194 195.035 0 126.051 0ZM218.015 127.335C219.634 127.71 221.276 128.113 222.492 127.937C222.6 127.847 222.985 127.222 223.193 126.887L223.813 125.933C225.31 123.69 226.721 121.578 227.956 119.285C230.497 114.481 233.08 109.099 234.735 102.392C236.296 109.367 237.236 116.58 237.485 123.974C236.77 125.146 236.047 126.308 235.323 127.448C234.644 128.52 233.971 129.587 233.315 130.659C232.926 131.297 232.406 131.961 231.872 132.64C231.158 133.54 230.353 134.562 230.144 135.326C230.032 135.77 230.249 136.705 230.416 137.452C230.502 137.832 230.583 138.203 230.646 138.556C230.909 140.175 231.085 141.78 231.262 143.386L231.542 145.864C232.275 151.969 232.193 158.034 232.035 163.571C227.277 178.454 219.625 191.996 209.752 203.501L209.282 203.804C204.293 207.043 198.631 209.905 191.938 212.574C190.929 212.98 189.699 213.302 188.437 213.619C186.787 214.034 185.081 214.469 184.086 215.143C183.589 215.473 183.105 216.233 182.635 216.966C182.381 217.355 182.137 217.739 181.879 218.087C180.708 219.707 179.446 221.267 178.189 222.823L176.981 224.325C174.421 227.508 171.622 230.629 168.722 233.695C155.566 239.312 141.148 242.423 126.038 242.423C110.521 242.423 95.7366 239.145 82.2952 233.247C81.1965 232.157 80.1016 231.068 79.0072 229.883C75.7239 226.4 72.9874 222.656 70.5181 219.132C70.1198 218.572 69.7221 217.911 69.3106 217.238C68.569 216.007 67.8 214.727 66.9813 214.095C66.6374 213.818 65.9956 213.701 65.3127 213.57C64.8421 213.48 64.372 213.384 63.9331 213.258C61.6988 212.598 59.5374 211.671 57.5425 210.77C50.9892 207.812 45.4717 204.077 40.4829 200.481C39.931 200.083 39.3705 199.635 38.8143 199.206C30.2618 188.202 23.6224 175.566 19.4708 161.813C19.0683 154.78 19.3351 148.028 19.7513 141.719C19.8416 140.426 20.0994 139.019 20.3709 137.576C20.7823 135.392 21.2033 133.131 20.8954 131.421C20.7733 130.715 20.0634 129.738 19.4344 128.879C19.0139 128.304 18.6115 127.744 18.2903 127.201C16.9381 124.822 15.8527 122.398 14.7989 120.06L14.7805 120.019C15.2464 113.131 16.2959 106.406 17.9011 99.9023C18.1953 100.694 18.4984 101.463 18.7742 102.155L20.3482 106.198C21.8635 110.155 23.297 113.891 25.1061 117.64L25.5445 118.527C26.508 120.485 27.4217 122.33 28.5478 124.044C28.8146 124.461 29.1901 125.057 29.3802 125.162L29.6924 125.153C30.8998 125.153 32.3154 124.836 33.686 124.533C34.6854 124.312 35.6715 124.094 36.6122 123.968L40.0539 123.52C44.9883 122.869 50.0943 122.199 55.1957 121.919C55.6842 121.896 56.195 121.892 56.729 121.892L59.1846 121.905C61.5092 121.905 64.0783 121.778 65.5075 120.851C65.77 120.68 66.1451 119.847 66.3712 119.345C66.584 118.87 66.7964 118.409 67.0314 118.011C68.2209 115.98 69.3201 113.891 70.4235 111.801C71.0161 110.68 71.6082 109.558 72.2098 108.451C75.4524 102.517 79.2559 96.3523 83.5163 90.1244C84.1993 89.116 84.9546 88.0755 85.7279 87.0085C87.781 84.1727 89.9022 81.2465 91.0468 78.3837C91.3362 77.6601 90.1827 75.3265 89.6265 74.2051C89.2467 73.4361 88.8981 72.7214 88.6768 72.1198C87.1704 68.0089 85.2937 63.9339 83.4804 59.9857C82.0691 56.9147 80.6535 53.8396 79.3784 50.7053L76.8458 44.2877C76.7866 44.143 76.6783 43.8942 76.588 43.7225C76.3482 43.7136 76.1311 43.7088 75.905 43.7088C72.2146 43.7088 68.0355 44.7853 64.3545 45.735C57.2223 47.562 49.8683 49.6695 42.8718 53.0573C42.3473 53.3061 41.7816 53.5411 41.2254 53.7762C46.7434 47.1505 52.9709 41.1719 59.8046 35.975C61.8899 35.4325 63.9927 34.962 66.1186 34.6857L68.4247 34.3693C70.8307 34.0392 73.2281 33.7091 75.6383 33.4376C76.0133 33.3927 76.4385 33.3742 76.8817 33.3742L78.0485 33.3832C78.311 33.3832 78.9982 33.3832 79.3378 33.2432C80.4322 32.8091 81.6534 31.7326 82.8339 30.6878C83.7836 29.8469 84.7697 28.9786 85.8187 28.3136C90.1604 25.5771 95.0678 23.3206 101.738 20.9913C107.107 19.1283 111.955 17.7846 116.568 16.8893C117.219 16.7673 118.088 16.7129 119.019 16.6722C119.924 16.6273 121.773 16.5412 122.285 16.238C122.099 16.2787 122.235 15.8403 122.154 15.0486C122.149 14.5917 122.149 14.1348 122.122 13.6689C123.429 13.6235 124.736 13.5696 126.052 13.5696C128.155 13.5696 130.245 13.642 132.32 13.7593L132.402 14.9625C132.415 15.3106 132.402 15.627 132.388 15.9576C132.375 16.2967 132.352 16.8666 132.415 17.0477C132.701 17.2284 134.043 17.5089 135.025 17.7127C135.794 17.8754 136.536 18.0339 137.146 18.2372C141.257 19.5984 145.667 21.1138 150.072 22.9498C155.368 25.1523 160.451 27.9655 165.177 31.3121C165.996 31.9 166.824 32.696 167.674 33.5147C168.818 34.6228 170.107 35.8757 171.125 36.2011C171.799 36.4229 173.205 36.2962 174.408 36.1557C175.245 36.0606 176.058 35.9703 176.768 35.9703H179.582C183.516 35.9703 187.7 36.0067 191.81 36.4768C192.267 36.5312 192.674 36.5946 193.127 36.6532C198.051 40.4705 202.651 44.7129 206.893 49.2987C205.74 49.0272 204.546 48.8012 203.361 48.5888L201.579 48.2634C195.428 47.0782 188.178 45.8707 181.095 45.8707C179.481 45.8707 177.875 45.9341 176.293 46.0741C175.958 46.1058 175.565 46.1195 175.149 46.1375C174.457 46.1649 173.014 46.2188 172.67 46.4945C172.566 46.653 172.363 47.4305 172.254 47.8515C172.173 48.1546 172.096 48.4483 172.014 48.7061C171.707 49.6605 171.372 50.6008 171.042 51.5419C170.594 52.8038 170.146 54.0704 169.771 55.3545C168.626 59.298 167.007 63.0972 165.447 66.7745C164.587 68.7959 163.728 70.8178 162.946 72.8662C162.367 74.3768 161.643 75.7881 160.92 77.2127C160.554 77.932 160.182 78.6509 159.839 79.3883L159.572 79.9714C159.436 80.2609 159.228 80.6998 159.215 80.8625C159.934 82.9156 161.616 85.2085 163.245 87.4247C164.113 88.6142 164.963 89.7763 165.669 90.8981C168.635 95.6514 171.526 100.446 174.425 105.249L178.92 112.679C180.562 115.334 181.991 117.867 183.285 120.408L183.642 121.173C183.959 121.86 184.547 123.149 184.977 123.416C185.374 123.669 186.604 123.678 187.197 123.678L187.753 123.683C189.531 123.751 191.566 123.94 194.004 124.266C200.159 125.094 206.364 125.795 212.556 126.5L214.79 126.758C215.744 126.82 216.866 127.073 218.015 127.335Z"/></svg>